<svg xmlns="http://www.w3.org/2000/svg" viewBox="0 0 465.78 142.95"><defs><style>.cls-1{fill:#f06;}.cls-2{fill:#903;}.cls-3{fill:#06f;}</style></defs><title>Recurso 6</title><g id="Capa_2" data-name="Capa 2"><g id="Capa_2-2" data-name="Capa 2"><path class="cls-1" d="M261.86,70.68c18-14.37,39.88-23.39,62.45-27.64,25.15-4.73,51.14-3.45,76.17,1.33,6.95,1.33,13.89,2.86,20.7,4.8a63.13,63.13,0,0,1,18.08,8.15c.65.43,1.25-.61.61-1a61,61,0,0,0-15.94-7.54c-6.08-1.89-12.34-3.31-18.57-4.61a243.9,243.9,0,0,0-38.83-5c-24.48-1.1-49.27,2.17-72.07,11.38A134.27,134.27,0,0,0,261,69.83c-.61.48.25,1.33.85.85Z"/><path class="cls-2" d="M305.19,51.49c1.08,3.29,2.27,6.53,3.46,9.77.59,1.6,1.17,3.19,1.73,4.79q.42,1.17.81,2.34c.18.55.25,1.38.78,1.7.93.56,2.38.08,3.18-.47a4.89,4.89,0,0,0,2-2.87c.69-3-1.16-6.2-2.32-8.91l-3.73-8.71c-.3-.71-1.34-.09-1,.61l4.11,9.62c.83,1.93,2,4,1.91,6.21-.06,1.85-1.59,4.05-3.68,3.38l.42.43c-2-6.12-4.42-12.09-6.42-18.21-.24-.74-1.41-.42-1.17.32Z"/><path class="cls-2" d="M301,49.94c.95,2.09,3.48,2.19,5.44,1.8a13.91,13.91,0,0,0,3.27-1.13,4.8,4.8,0,0,0,2.64-2.5,2.78,2.78,0,0,0-1-3.32c-.65-.43-1.26.62-.61,1,.91.59.56,2-.05,2.64a7.77,7.77,0,0,1-3.3,1.76c-1.68.54-4.48,1.11-5.4-.9-.32-.71-1.36-.1-1,.61Z"/><path class="cls-2" d="M310.14,65.79c-2.79.25-4.85,3.13-5.35,5.71-.61,3.2,1.78,5.64,4.59,6.76a12.56,12.56,0,0,0,10.38-.66,8.62,8.62,0,0,0,4.54-8.75c-.56-3.45-4.39-7.62-7.95-5.09-.63.45,0,1.5.61,1,2.75-1.95,5.56,1.41,6.11,4a7.3,7.3,0,0,1-3.45,7.48,11.29,11.29,0,0,1-8.5,1.26c-2.26-.55-5.25-2.21-5.24-4.89,0-2.23,1.81-5.43,4.26-5.65.76-.07.77-1.28,0-1.21Z"/><path class="cls-2" d="M323,104.14a37.6,37.6,0,0,1,13.54,8c1.37,1.28,3,2.83,5.07,2.56a3.74,3.74,0,0,0,3.11-3.82.61.61,0,0,0-1.21,0c0,2.4-2.29,3.2-4.16,2-1.64-1-2.92-2.61-4.47-3.78A41.28,41.28,0,0,0,323.35,103c-.73-.26-1.05.91-.32,1.16Z"/><path class="cls-2" d="M322.74,72.84l2.85,7.25a.6.6,0,0,0,1.16-.32l-2.85-7.25a.6.6,0,0,0-1.16.32Z"/><path class="cls-1" d="M254.54,57.71c18-14.38,39.88-23.39,62.46-27.64,25.14-4.74,51.13-3.46,76.17,1.33,6.94,1.33,13.89,2.85,20.69,4.8a62.71,62.71,0,0,1,18.08,8.14c.65.44,1.26-.61.61-1a60.52,60.52,0,0,0-15.94-7.54c-6.08-1.9-12.33-3.31-18.56-4.61a243.05,243.05,0,0,0-38.83-5c-24.48-1.1-49.28,2.17-72.08,11.38a134.41,134.41,0,0,0-33.45,19.36c-.61.49.25,1.34.85.86Z"/><path class="cls-2" d="M307.71,77.66c1.33,2.47,2.6,5.34.36,7.67-1.22,1.27-2.87,2.45-2.74,4.41.15,2.23,2.52,3.75,4.05,5.05A13.46,13.46,0,0,1,310.76,96c.62.71.2,1.26-.11,2a4.65,4.65,0,0,0-.3,2.66,6.53,6.53,0,0,0,3.7,4.56,12,12,0,0,0,6.36,1.32,3.15,3.15,0,0,0,2.63-3.77c-.32-2.16-2.25-3.63-3.66-5.1-4-4.16-7.33-9-8.76-14.63a.6.6,0,0,0-1.16.32,30.92,30.92,0,0,0,5.77,11.35,51.08,51.08,0,0,0,4.26,4.8,9.93,9.93,0,0,1,2.05,2.47c.59,1.21.46,3-1.09,3.33A7.77,7.77,0,0,1,317,105a10,10,0,0,1-3.2-1.26A4.42,4.42,0,0,1,312,98c.87-1.86-.46-2.87-1.79-4-1.49-1.27-4.74-3.3-3.33-5.62,1.07-1.74,3.05-2.57,3.54-4.71s-.63-4.61-1.69-6.56c-.37-.68-1.41-.07-1,.61Z"/><path class="cls-2" d="M326.24,80.75c4,2.46,6.95,6.19,9.85,9.82,2.74,3.43,5.41,6.92,8.16,10.35.48.61,1.33-.25.85-.85-2.8-3.51-5.53-7.07-8.34-10.58s-5.89-7.31-9.91-9.78c-.67-.41-1.27.64-.61,1Z"/><path class="cls-2" d="M344.11,110.28c-3.15-.44-3.46-4.55-2-6.72,2-2.9,6-4.21,9-5.6q2.78-1.26,5.56-2.48l2.79-1.21a8.71,8.71,0,0,1,3.42-1c1.61,0,3.06,1.11,4.52,1.68A6.62,6.62,0,0,0,372,95c3.1-1,7.54-5.31,10.84-2.62.6.49,1.45-.36.85-.85-3-2.47-6.71-.38-9.6,1.2-2.21,1.21-4.27,1.88-6.69.82-1.61-.69-3.18-1.7-5-1.55a8.27,8.27,0,0,0-2.65.83c-1.22.51-2.44,1-3.65,1.57q-3.43,1.5-6.84,3.06c-3.24,1.48-7.36,3.06-8.84,6.62-1.14,2.74,0,6.86,3.32,7.33.76.1,1.09-1.06.33-1.17Z"/><path class="cls-2" d="M381.91,91.44c2.7-1.17,6.1-2.56,9-1.08.69.35,1.3-.69.61-1-3.31-1.71-7-.28-10.18,1.09-.71.31-.1,1.35.61,1Z"/><path class="cls-2" d="M389,89.06a10.13,10.13,0,0,1,10.27-1.24c.7.32,1.31-.72.61-1A11.31,11.31,0,0,0,388.4,88c-.61.47,0,1.52.61,1Z"/><path class="cls-2" d="M397,86.17a118.9,118.9,0,0,0,47.42-20c.63-.45,0-1.5-.61-1A117.83,117.83,0,0,1,396.71,85c-.76.14-.44,1.3.32,1.16Z"/><path class="cls-2" d="M443.67,65.79c.61,4.6,3.57,8.24,7.14,11a64.34,64.34,0,0,0,6.14,4,40.12,40.12,0,0,0,6.61,3.41c.73.27,1.05-.9.32-1.17a36.77,36.77,0,0,1-6.17-3.19c-1.91-1.16-3.83-2.3-5.62-3.62-3.46-2.55-6.63-6-7.22-10.46-.1-.75-1.31-.76-1.2,0Z"/><path class="cls-2" d="M343.72,111.3c6.15,4.91,14,1.45,19.89-2.06a.6.6,0,0,0-.61-1c-5.29,3.17-12.77,6.76-18.42,2.24-.61-.48-1.47.37-.86.86Z"/><path class="cls-2" d="M360.5,111.61a97.9,97.9,0,0,0,29.95,3.25c.77,0,.78-1.24,0-1.21a96.74,96.74,0,0,1-29.63-3.21.61.61,0,0,0-.32,1.17Z"/><path class="cls-2" d="M367.27,113.25a14.18,14.18,0,0,0,5,18.7,7.4,7.4,0,0,0,5,1.36,7.77,7.77,0,0,0,4-2.59,55.55,55.55,0,0,0,7.16-8.67c.68-1.08,5.06-9.25,1.72-9.11-.78,0-.78,1.25,0,1.21a12.45,12.45,0,0,1-.57,2.79,19.33,19.33,0,0,1-1.23,2.84,29.61,29.61,0,0,1-3.14,4.7c-1.14,1.44-2.38,2.8-3.62,4.14s-2.63,3.14-4.54,3.49-4.25-1-5.75-2.29a13.27,13.27,0,0,1-3.29-4.19,13,13,0,0,1,.28-11.77c.36-.68-.68-1.29-1-.61Z"/><path class="cls-2" d="M365.65,121.35a5.13,5.13,0,0,0,4.2,3.17c2.28.33,4.49-.62,6.47-1.64.69-.36.08-1.4-.61-1a10.26,10.26,0,0,1-5.43,1.54,4,4,0,0,1-3.47-2.34c-.27-.72-1.43-.41-1.16.32Z"/><path class="cls-2" d="M376.36,133.86c.74,4.42,5,6.89,9,8a37.37,37.37,0,0,0,15.51.53,42.11,42.11,0,0,0,26.81-15.84,42.6,42.6,0,0,0,7.55-15.49.6.6,0,0,0-1.16-.32,40.89,40.89,0,0,1-45.62,30.54c-4.44-.66-10-2.73-10.89-7.75-.13-.77-1.29-.44-1.16.32Z"/><path class="cls-2" d="M432.42,119.33c13.95-5,27.6-14.19,32.21-29a17.47,17.47,0,0,0,1.14-5.69c-.07-1.16-.9-2.47-2.17-1.84-.7.35-.09,1.39.61,1,.52-.26.11,2.74.06,3a30.39,30.39,0,0,1-.75,3,33.21,33.21,0,0,1-2.27,5.57,39.19,39.19,0,0,1-7.14,9.68c-6.12,6.11-13.94,10.21-22,13.13-.73.26-.42,1.43.32,1.16Z"/><path class="cls-2" d="M342.17,114.59q12.46,9,24.47,18.67c.41.33,1.25,0,1-.59l-.18-.47c-.28-.71-1.45-.4-1.17.32l.18.47,1-.59q-12.12-9.72-24.71-18.85c-.63-.46-1.23.59-.61,1Z"/><path class="cls-2" d="M356.57,112.87a93.25,93.25,0,0,1,8.51,6.58c.58.51,1.44-.34.85-.86a95.8,95.8,0,0,0-8.75-6.77c-.64-.44-1.25.61-.61,1.05Z"/><path class="cls-2" d="M280.34,58.69a55.28,55.28,0,0,1-2.51,14,49,49,0,0,0-1.74,6.27c-.39,2.32-.49,4.43-1.56,6.58-1.7,3.45-3.43,7.09-1.7,10.93a6.68,6.68,0,0,0,8.14,3.84c4.31-1.45,6-5.9,7.12-9.92a.61.61,0,0,0-1.17-.32c-.94,3.52-2.35,7.62-6.09,9-3.92,1.46-7.3-1.89-7.5-5.7-.21-4,2.72-6.8,3.46-10.51.38-1.9.44-3.82.93-5.7s1.12-3.61,1.66-5.42a55.31,55.31,0,0,0,2.17-13c0-.77-1.17-.77-1.21,0Z"/><path class="cls-2" d="M284,78.66a13,13,0,0,1,2.88,12.27.61.61,0,0,0,1.17.32,14.23,14.23,0,0,0-3.2-13.45c-.52-.57-1.38.29-.85.86Z"/><path class="cls-2" d="M287.9,83.71a73,73,0,0,0,6.73-17.47.61.61,0,0,0-1.17-.32,71.49,71.49,0,0,1-6.6,17.18c-.37.69.67,1.3,1,.61Z"/><path class="cls-2" d="M283,98.38c-.3,2.76-.73,7.05,1.57,9.17s5.73.47,7.65-1.28c5.41-4.93,4.41-13.37,4.37-20a.6.6,0,0,0-1.2,0c0,5.74.91,12.67-2.68,17.61-1.36,1.87-5,4.82-7.28,2.77a5.23,5.23,0,0,1-1.34-3.56,25.13,25.13,0,0,1,.11-4.75c.08-.77-1.12-.77-1.2,0Z"/><path class="cls-2" d="M296.34,91.45a73.81,73.81,0,0,1,8.21-17.59l-1.11-.47-.3.76c-.3.72.87,1,1.16.33l.31-.77c.26-.66-.75-1-1.11-.46a75.59,75.59,0,0,0-8.32,17.88c-.24.75.93,1.06,1.16.32Z"/><path class="cls-2" d="M297.64,85.4c1,3.94.51,8,0,12-.32,2.61-1.36,7,1.67,8.43,2.67,1.29,5.67-.93,7.25-2.93a11.79,11.79,0,0,0,2.48-8.58c-.08-.76-1.29-.77-1.21,0a10.65,10.65,0,0,1-2.31,8c-1.34,1.63-5.21,4.43-6.71,1.42-.61-1.22-.37-2.76-.23-4.07.18-1.61.41-3.22.58-4.83a26.15,26.15,0,0,0-.37-9.7.6.6,0,0,0-1.16.32Z"/><path class="cls-2" d="M325.92,77.11a59.67,59.67,0,0,0,9-35.95c-.05-.77-1.26-.78-1.2,0a58.65,58.65,0,0,1-8.8,35.34c-.42.66.63,1.27,1,.61Z"/><path class="cls-2" d="M318.2,54.85A20.72,20.72,0,0,0,334,56.09c.74-.24.42-1.4-.32-1.16a19.51,19.51,0,0,1-14.91-1.12c-.69-.35-1.3.69-.61,1Z"/><path class="cls-3" d="M341.66,78,337.91,70l-.68.89a37.42,37.42,0,0,0,9,1.63c.78,0,.78-1.17,0-1.21a36.24,36.24,0,0,1-8.7-1.58.61.61,0,0,0-.68.88l3.75,7.92c.34.7,1.38.09,1-.61Z"/><path class="cls-3" d="M336.91,71.07a51,51,0,0,0,22.74,13.21.61.61,0,0,0,.32-1.17,49.7,49.7,0,0,1-22.21-12.89.6.6,0,0,0-.85.85Z"/><path class="cls-3" d="M304.36,44a8.85,8.85,0,0,0-7.33-2.2c-.34,0-.47.45-.42.74a3.25,3.25,0,0,0,1.56,2.26c.55.34,1.07-.3.83-.82a11.09,11.09,0,0,0-2.15-3l-.27,1,3.28-.79c.75-.18.43-1.34-.32-1.16l-3.28.78a.61.61,0,0,0-.26,1A9.83,9.83,0,0,1,298,44.54l.83-.83a2.14,2.14,0,0,1-1-1.54l-.42.74a7.6,7.6,0,0,1,6.16,1.9c.57.52,1.43-.33.85-.86Z"/><path class="cls-3" d="M309.82,43.44a4.73,4.73,0,0,1,2-5.2.61.61,0,0,0-.15-1.1,5,5,0,0,0-3,.13l.32,1.17,2.68-1-.68-.28,1.35,2.07c.42.65,1.47,0,1-.61L312,36.5a.64.64,0,0,0-.68-.28l-2.68,1.05a.63.63,0,0,0-.42.75.61.61,0,0,0,.74.42,3.78,3.78,0,0,1,2.37-.13l-.14-1.11a6,6,0,0,0-2.52,6.56.6.6,0,0,0,1.16-.32Z"/><path class="cls-1" d="M110.23,22.35a113,113,0,0,1,50.06,16.33c.58.36,1.12-.56.53-.92a113.82,113.82,0,0,0-50.59-16.48c-.69-.05-.68,1,0,1.07Z"/><path class="cls-1" d="M4.27,65.28a258.22,258.22,0,0,1,35-20.57A253.07,253.07,0,0,1,77.17,30C84.54,27.77,92,25.9,99.56,24.35c.67-.13.39-1.16-.29-1A259.06,259.06,0,0,0,59.89,34.69,255.3,255.3,0,0,0,23.39,51.9Q13.28,57.69,3.73,64.36c-.56.39,0,1.31.54.92Z"/><path class="cls-2" d="M90.94,24.76c3.29-4.7,8-8.12,12.45-11.61a71.33,71.33,0,0,0,6.35-5.43,34.71,34.71,0,0,0,2.74-3.07c.4-.52.79-1.05,1.15-1.59a23.66,23.66,0,0,0,1.3-2.43c-.68-.07-.67,1,0,1.07s1-.83.63-1.36c-.62-.82-1.52,0-1.89.61a33.7,33.7,0,0,1-5,6.34c-3.92,3.8-8.5,6.8-12.61,10.39a37,37,0,0,0-6,6.54c-.39.57.53,1.1.92.54Z"/><path class="cls-2" d="M98.9,22.45C100,26,101,29.55,102.21,33c.92,2.6,2.32,5.36,5,6.53,2.09.92,4.89.85,6.43-1,1.92-2.35.8-5.55-.24-8a39.22,39.22,0,0,1-3.23-12.43c0-.68-1.12-.69-1.07,0A37,37,0,0,0,111,27.32c.92,2.63,2.76,5.4,2.65,8.28s-3,4-5.47,3.19c-2.71-.9-4.07-3.68-4.95-6.19-1.19-3.44-2.17-7-3.25-10.43-.2-.66-1.23-.38-1,.28Z"/><path class="cls-2" d="M114.31,21.83A22,22,0,0,0,122.84,13c.32-.6-.6-1.14-.92-.53a21.09,21.09,0,0,1-8.14,8.43.53.53,0,0,0,.53.92Z"/><path class="cls-2" d="M124,23.57a9.34,9.34,0,0,0,3.31-3.69A16.76,16.76,0,0,0,128.5,15c.46-3.58-.45-8.29,2.58-11,.52-.45-.24-1.2-.75-.75-2.78,2.44-2.55,6.4-2.73,9.78a21.09,21.09,0,0,1-.92,5.46,8.11,8.11,0,0,1-3.26,4.17c-.56.39,0,1.31.54.92Z"/><path class="cls-2" d="M128.07,67.83a35.81,35.81,0,0,0-9.34,10.57c-.44.78-1.39,2-1.19,2.95s1.45,1.31,2.27,1.44c2.21.37,4.36-.7,6.12-1.94a85.6,85.6,0,0,0,6.83-5.79c.52-.45-.23-1.2-.75-.75-1.77,1.54-3.51,3.13-5.32,4.62a11.49,11.49,0,0,1-5.19,2.81c-.77.13-2.19.16-2.78-.46-.43-.43,1-2.38,1.24-2.85a34.23,34.23,0,0,1,8.65-9.68c.54-.41,0-1.34-.54-.92Z"/><path class="cls-2" d="M110.87,105c-2.27-3.12.34-6.73,2.9-8.64s5.24-3.43,7.63-5.53a41.51,41.51,0,0,0,11-15.41c.26-.63-.77-.91-1-.28a40.3,40.3,0,0,1-12.73,16.59c-2.65,2-5.92,3.48-8,6.14-1.68,2.14-2.38,5.34-.68,7.67.4.55,1.33,0,.92-.54Z"/><path class="cls-2" d="M111.21,105.47c6.91-.11,12.05-5.41,16.65-9.93a104.55,104.55,0,0,1,19.06-14.92c.58-.36.05-1.28-.54-.92a102.72,102.72,0,0,0-18.3,14.13c-4.69,4.55-9.79,10.47-16.87,10.57a.54.54,0,0,0,0,1.07Z"/><path class="cls-2" d="M119.14,78.79a21.67,21.67,0,0,1-4.06-2.92c-1.16-1.06-3-2.89-2.19-4.62,1-2.17,4-1.69,5.85-1.3a21.94,21.94,0,0,1,5.74,1.93c.61.31,1.15-.61.54-.92a22.29,22.29,0,0,0-5.18-1.87c-1.87-.42-4-.94-5.84-.17a3.49,3.49,0,0,0-2.29,3.87,7.58,7.58,0,0,0,2.61,3.83,22.72,22.72,0,0,0,4.28,3.09c.61.33,1.15-.59.54-.92Z"/><path class="cls-2" d="M131,73a7.89,7.89,0,0,1-2.27-7.36A13.06,13.06,0,0,1,133,58.18a55.57,55.57,0,0,1,7.81-5.61,85.42,85.42,0,0,0,8.07-6,87.13,87.13,0,0,0,8.56-8.19l-.89-.24a29.79,29.79,0,0,0,17.47,17.51l-.37-.37c.78,3.38-1.89,6.84-3.58,9.55s-3.59,5.46-5.57,8.05c-3.56,4.63-7.86,10.16-14,11.16A9.34,9.34,0,0,1,142,81.44c-.46-.52-1.21.24-.75.75,3,3.28,8,3.78,11.94,2.27,4.8-1.82,8.26-5.91,11.35-9.84,1.73-2.18,3.37-4.44,4.91-6.76a57.25,57.25,0,0,0,4.48-7.53,9.8,9.8,0,0,0,1-3.34,5.44,5.44,0,0,0-.09-1.61c-.14-.7-.41-.71-1.05-1a27.72,27.72,0,0,1-6.3-3.49,28.69,28.69,0,0,1-9.83-13,.54.54,0,0,0-.89-.24,88.67,88.67,0,0,1-17.29,14.58c-5.06,3.28-10.85,7-11.75,13.45a8.88,8.88,0,0,0,2.6,8c.51.45,1.27-.3.75-.76Z"/><path class="cls-2" d="M80.74,122,86.2,83.3,88.92,64l1.31-9.24c.41-2.95.75-5.92,1.42-8.82,1.19-5.18,4.77-12.76,11.19-12.17.68.06.68-1,0-1.07-5.08-.47-8.8,4.06-10.69,8.27a32.59,32.59,0,0,0-2.21,8.35c-.51,3.25-.93,6.52-1.39,9.78L82.92,99l-3.2,22.69c-.1.67.93,1,1,.29Z"/><path class="cls-2" d="M113.62,33.25c10.92-.17,23.64.09,31.31,9.15l-.08-.64-.63.81c-.42.54.51,1.07.92.54l.63-.82a.53.53,0,0,0-.09-.64c-7.85-9.28-20.87-9.64-32.06-9.46a.53.53,0,0,0,0,1.06Z"/><path class="cls-2" d="M80.18,122c2.68,4.15,8.69,3.22,11.49-.24,4.1-5.07,2.53-11.89,2.24-17.82-.35-7.21.59-14.46,1.62-21.58Q97,72,99.35,61.74q2.64-11.6,6.33-22.93c.21-.65-.82-.93-1-.28a261.17,261.17,0,0,0-9.34,38.3,187.89,187.89,0,0,0-2.38,19.35,68.27,68.27,0,0,0,.07,10c.27,3.2.73,6.5.12,9.7-.55,2.85-2,5.91-4.77,7.2-2.42,1.13-5.73.71-7.25-1.65-.37-.58-1.29,0-.92.54Z"/><path class="cls-2" d="M114.07,38.93c2.65-.18,5,1.06,7.12,2.45A39.07,39.07,0,0,0,128,45.23a22.16,22.16,0,0,0,7.93,1.47c1.94,0,5-.49,6,1.65.29.62,1.21.08.92-.54-.9-1.9-3.1-2.19-5-2.21A27,27,0,0,1,129,44.46c-2.83-1-5.18-2.71-7.69-4.28-2.2-1.37-4.58-2.5-7.23-2.31-.68,0-.69,1.11,0,1.06Z"/><path class="cls-2" d="M159.85,80.1a112,112,0,0,1,20.44,41.59.53.53,0,0,0,1-.28,113,113,0,0,0-14.71-33.7c-1.87-2.88-3.88-5.67-6-8.37-.43-.54-1.18.22-.76.76Z"/><path class="cls-2" d="M168.7,68.84A114.62,114.62,0,0,1,190,107.72,115.47,115.47,0,0,1,193.08,120l1-.28-.27-1.32c-.14-.67-1.17-.39-1,.28l.28,1.32c.14.67,1.16.39,1-.28A115.35,115.35,0,0,0,177,78.19a114,114,0,0,0-7.55-10.11c-.44-.52-1.19.24-.75.76Z"/><path class="cls-1" d="M4,98.19A178,178,0,0,1,34.57,75.78,214.58,214.58,0,0,1,70,59.11,194.78,194.78,0,0,1,90.16,53a.53.53,0,0,0-.28-1,213.11,213.11,0,0,0-70.2,32.21A167.16,167.16,0,0,0,3.19,97.44c-.5.46.25,1.22.76.75Z"/><path class="cls-1" d="M102,51.55a97.21,97.21,0,0,1,17.81-.15c5.41.46,11,1.25,15.68,4.24.58.37,1.11-.55.54-.92-4.59-2.94-10.05-3.81-15.38-4.31a96.84,96.84,0,0,0-18.65.08c-.68.06-.69,1.13,0,1.06Z"/><path class="cls-1" d="M169.7,67.5a79,79,0,0,1,29.85,38.7A77.33,77.33,0,0,1,203,119.58c.11.68,1.14.39,1-.28a80.06,80.06,0,0,0-22.85-43.78,77.48,77.48,0,0,0-10.94-8.94c-.57-.38-1.1.54-.54.92Z"/><path class="cls-1" d="M.91,87.42a179.7,179.7,0,0,1,32.5-25.08A181.72,181.72,0,0,1,70.9,45.18a179.89,179.89,0,0,1,22.38-5.71c.67-.13.39-1.16-.29-1A181.76,181.76,0,0,0,17.81,71.57,178.67,178.67,0,0,0,.16,86.67c-.49.47.26,1.23.75.75Z"/><path class="cls-1" d="M174.65,61.37c13.77,11.65,27.59,24.18,35.47,40.74a61.65,61.65,0,0,1,4.75,14l1-.41-3.2-4.74c-.39-.57-1.31,0-.93.54l3.2,4.74a.54.54,0,0,0,1-.41C212.22,98,200.45,83.38,187.44,71.21c-3.9-3.65-7.95-7.14-12-10.59-.52-.44-1.28.31-.75.75Z"/><path class="cls-1" d="M178.3,52.19a108.65,108.65,0,0,1,39.61,43.64,105.55,105.55,0,0,1,6.29,15.62.54.54,0,0,0,1-.29,109.72,109.72,0,0,0-32.76-49.84,107.45,107.45,0,0,0-13.64-10c-.58-.36-1.12.56-.53.92Z"/><path class="cls-2" d="M157.9,42.08A245.51,245.51,0,0,1,183.63,27c.61-.31.07-1.23-.54-.92a245.51,245.51,0,0,0-25.73,15.13c-.57.38,0,1.31.54.92Z"/><path class="cls-2" d="M170.78,53.39A142.59,142.59,0,0,1,192.05,37c.58-.36,0-1.29-.54-.92A144.29,144.29,0,0,0,170,52.63c-.5.47.25,1.23.76.76Z"/><path class="cls-2" d="M106.36,52a69.74,69.74,0,0,1-.94,9.66c-.32,1.84-1.58,5.91,1.48,6.22a1.52,1.52,0,0,0,1.2-.33c.45-.4.43-1.26.53-1.83.27-1.51.49-3,.67-4.55s.3-3.17.38-4.76c0-.82.06-1.64.07-2.46,0-.41,0-.82,0-1.23,0-.09,0-1-.06-.95l-.41,0-.21-.51.6-.25h-.07c-.67-.1-1,.93-.28,1h.07a.55.55,0,0,0,.6-.24c.37-.73-.49-1.49-1.09-.82-.32.36-.23,1-.22,1.38,0,.82,0,1.64,0,2.46a68.91,68.91,0,0,1-.89,9.51c0,.35-.11.71-.18,1.06a4,4,0,0,1-.22,1.21c.08.14,0,.2-.23.18a1,1,0,0,1-.47-.1,1.23,1.23,0,0,1-.67-.79,4.36,4.36,0,0,1,.1-2.18c.15-.81.3-1.62.44-2.43a71.3,71.3,0,0,0,.88-9.33.54.54,0,0,0-1.07,0Z"/><path class="cls-2" d="M101.33,54a4,4,0,0,0,5.55,3,.53.53,0,1,0-.53-.92,2.49,2.49,0,0,1-1.26.22,3.17,3.17,0,0,1-.6-.12,2.91,2.91,0,0,1-.6-.25,3,3,0,0,1-1-.81,3.29,3.29,0,0,1-.36-.6c0,.07,0-.07,0-.09s0-.11,0-.16a1.46,1.46,0,0,1,0-.2s0-.19,0-.12a.55.55,0,0,0-.54-.53.53.53,0,0,0-.53.53Z"/><path class="cls-2" d="M108.75,58.39a4.59,4.59,0,0,0,4.36-1.54A9,9,0,0,0,115,52.07a.56.56,0,0,0-.38-.66.54.54,0,0,0-.65.38A8.38,8.38,0,0,1,112.48,56,3.59,3.59,0,0,1,109,57.36c-.67-.15-1,.88-.28,1Z"/><path class="cls-3" d="M107.08,82.16l.31-8.06a.53.53,0,0,0-.67-.52,4.63,4.63,0,0,0-2.61,2.58c-.21.51.54.89.89.52a17.58,17.58,0,0,0,1.84-2.38l-.84.1,2.1,2.39c.46.51,1.21-.24.75-.76l-2.1-2.38a.53.53,0,0,0-.83.11,15.93,15.93,0,0,1-1.68,2.17l.89.52A3.44,3.44,0,0,1,107,74.61l-.67-.51L106,82.16c0,.68,1,.68,1.07,0Z"/><path class="cls-3" d="M101.48,61.26c-.9,1.56,1.37,2.84,2.49,3.38a10.66,10.66,0,0,0,4.87,1c1.47-.05,3.4-.32,4.45-1.46,1.27-1.37.21-2.95-.92-4-.51-.46-1.26.29-.75.75.83.75,1.83,1.92.54,2.77a6.74,6.74,0,0,1-3.5.84,9.73,9.73,0,0,1-3.54-.64c-.52-.2-3.19-1.36-2.72-2.18a.53.53,0,0,0-.92-.54Z"/><path class="cls-3" d="M111.67,62.41l.17-1.39.09-.67a1,1,0,0,1,0-.17c0-.13,0,0,0,0a.44.44,0,0,1-.15.12h0c.43,0,.87.11,1.31.17l1.41.17a.52.52,0,0,0,.53-.53.53.53,0,0,0-.53-.53l-1.58-.2-.78-.1a1.64,1.64,0,0,0-.73,0c-.64.22-.59,1-.66,1.51l-.2,1.62a.53.53,0,0,0,.53.53.54.54,0,0,0,.53-.53Z"/></g></g></svg>