<svg xmlns="http://www.w3.org/2000/svg" viewBox="0 0 212.97 213.62"><defs><style>.cls-1{fill:#903;}.cls-2{fill:#f06;}.cls-3{fill:#06f;}</style></defs><title>Recurso 1</title><g id="Capa_2" data-name="Capa 2"><g id="Capa_2-2" data-name="Capa 2"><path class="cls-1" d="M61.18,117.73c.68-1.07,1.36-2.14,2-3.21a33.25,33.25,0,0,1,1.89-3,8.22,8.22,0,0,1,1.84-1.42c.78-.53,1.58-1,2.38-1.54,1.75-1.12,3.93-1.61,4.59-3.83.31-1,.19-2.53,1-3.39.33-.36.75-.33,1.2-.45a3.5,3.5,0,0,0,1.46-.86c.79-.74-.4-1.93-1.19-1.19s-1.94.5-2.73,1.38a6.21,6.21,0,0,0-1.15,3.21,3.59,3.59,0,0,1-.58,1.66,4.05,4.05,0,0,1-1.6,1A20.4,20.4,0,0,0,68,107.4a17.92,17.92,0,0,0-4.19,3,25.41,25.41,0,0,0-2,3l-2.16,3.41c-.59.91.86,1.75,1.45.85Z"/><path class="cls-2" d="M24.54,202.67c22.71-12,45.49-24.14,66.48-39a237.54,237.54,0,0,0,28.88-23.89,216.76,216.76,0,0,0,25.53-30.85A424.79,424.79,0,0,0,171,67.6c.51-.95-.94-1.8-1.45-.85a419.86,419.86,0,0,1-22.2,36.34c-7.72,11.37-15.91,22.39-25.5,32.26-17.65,18.17-38.76,32.53-60.55,45.24-12.37,7.22-25,13.93-37.65,20.63-1,.51-.11,2,.85,1.45Z"/><path class="cls-2" d="M174.93,58.78q3.72-6.87,7.08-13.94c.46-1-1-1.83-1.45-.85q-3.34,7.07-7.08,13.94c-.51,1,.94,1.8,1.45.85Z"/><path class="cls-2" d="M183.72,40.92A251.09,251.09,0,0,0,197,1.05c.25-1-1.37-1.5-1.62-.45a249.3,249.3,0,0,1-13.14,39.47c-.42,1,1,1.84,1.45.85Z"/><path class="cls-2" d="M78.41,130.88a25.35,25.35,0,0,1,16.38-23,25.84,25.84,0,0,1,7.42-1.55c2.23-.11,4.79.61,6.88-.3,2.35-1,4.5-3.2,6.54-4.73q3.48-2.62,7-5.22,27.62-20.52,56.12-39.78,16.2-10.95,32.66-21.47c.91-.58.07-2-.85-1.45q-29.92,19.14-59,39.64Q137.07,83.28,122.8,93.86l-7,5.21-3.61,2.72a21.4,21.4,0,0,1-3.67,2.63c-1.31.6-2.76.26-4.16.21a26.36,26.36,0,0,0-3.77.16,26.85,26.85,0,0,0-23.87,26.09.84.84,0,0,0,1.68,0Z"/><path class="cls-2" d="M75.34,130.71c7.4,5.78,18.12,6.75,26.21,1.74a23.47,23.47,0,0,0,10.77-16.56c.35-2.61-.34-5.69,1.74-7.67,2.29-2.19,5.25-3.88,7.81-5.73l7.8-5.59q7.8-5.58,15.64-11.12,15.67-11.09,31.46-22,17.83-12.33,35.82-24.43c.89-.6,0-2.06-.85-1.46q-30.88,20.81-61.33,42.23-15.15,10.66-30.19,21.49c-2.26,1.63-4.63,3.17-6.79,4.93a6.84,6.84,0,0,0-2.57,5.52,23,23,0,0,1-4.26,13.45,21.35,21.35,0,0,1-30.07,4c-.84-.66-2,.52-1.19,1.19Z"/><path class="cls-2" d="M40.45,91.15c1.77-.41,3.14-2.5,4-4a8.81,8.81,0,0,0,1.15-2.49c.26-1.06-.26-2.53.5-3.45s2.41.14,3.47-.49a4,4,0,0,0,1.64-2.67c.27-1.25-.18-3.46,1.08-4.25s3,.23,4.31,0a3.08,3.08,0,0,0,2.21-1.74c.5-1,.39-4.6,2.11-4.54,1,0,1.83,1.45,2.94,1.6A2.55,2.55,0,0,0,66,68.46c1.35-1.25,1.36-3.46,2.69-4.66,1-1,2.2.25,3.36.39a2.76,2.76,0,0,0,2.36-.81A9.65,9.65,0,0,0,76,60.66c.69-1.41,1.15-2.07,2.81-1.59A3.27,3.27,0,0,0,82,58.7c.7-.52,1.88-2.51,2.82-2.12l-.62-.81a2.35,2.35,0,0,0,2.19,2.53c2.07.25,3.57-2.41,5.54-1.78l-.5-1.23a2,2,0,0,0,.85,2.92c2.1,1,3.35-1.56,5.22-1.74l-.81-1.07a3.08,3.08,0,0,0,1.49,3.5,2.92,2.92,0,0,0,1.87.38c.26,0,.65-.32.89-.32,1.46,0,.62,1.25.18,1.91a.85.85,0,0,0,.73,1.26c.58,0,3.35.11,2.28,1.19a.83.83,0,0,0-.21.82,2,2,0,0,0,2,1.31c.23,0,1.53-.17,1.65,0,.24.36-2,2.61-2.27,2.93a.86.86,0,0,0,.17,1.32,12.31,12.31,0,0,0,2.06.79c1,.49.4,1.16.16,2a5,5,0,0,0-.22.93c-.06,1.39,1.66,2.72,1.07,4-.45,1,1,1.83,1.45.85a3,3,0,0,0,.14-2.59c-.17-.42-.44-.78-.64-1.18-.43-.85-.26-1.16.09-2a2.57,2.57,0,0,0-.16-2.84c-.81-.91-2.16-.74-3.1-1.41l.17,1.32c.92-1.08,3.77-3.35,2.58-5.06a2,2,0,0,0-1.44-.74c-.27,0-2,.13-2.13-.1l-.22.82a2.18,2.18,0,0,0,.25-2.85c-.83-1.24-2.37-1.29-3.72-1.21l.72,1.26c.84-1.25,1.57-3.05.18-4.23a1.89,1.89,0,0,0-1.69-.39,12.71,12.71,0,0,1-1.23.42,1.32,1.32,0,0,1-1.52-1.66.84.84,0,0,0-.81-1.06,4.07,4.07,0,0,0-1.84.55c-.3.18-.56.4-.84.6a5.58,5.58,0,0,1-.64.44c-.39.31-.82.23-1.3-.24a.86.86,0,0,0-.5-1.24,3.41,3.41,0,0,0-2.51.14,8.58,8.58,0,0,0-1.29.73c-.33.2-2.93,1.88-2.7,0,0-.39-.3-.68-.61-.81-2.38-1-2.93,2.21-4.77,2.68-1.21.32-2.34-.84-3.64-.4a3.56,3.56,0,0,0-1.8,1.6c-.52.81-.82,1.74-1.31,2.57-.91,1.56-1.71,1-3.19.48-2-.65-3.32.7-4.16,2.4a14.78,14.78,0,0,1-1.23,2.53c-1.08,1.41-2.07-.13-3.21-.67-2.23-1.07-3.72,1-4.13,3-.17.81-.15,2.08-.8,2.69s-1.67.36-2.43.28a4.35,4.35,0,0,0-3.47.56,4,4,0,0,0-1.28,2.62c-.11.69-.09,1.39-.19,2.09-.21,1.44-.65,2-2.16,1.91-2.86-.23-3.32,2-3.46,4.36a6.44,6.44,0,0,1-1.33,3.22c-.6.9-1.56,2.42-2.7,2.68s-.61,1.86.45,1.62Z"/><path class="cls-2" d="M47.65,95.91c.54-2.83,4-4.57,5.7-6.74a5.41,5.41,0,0,0,1.19-3c0-.49-.16-1.35.63-1.48.15,0,.64.27.84.31a2.64,2.64,0,0,0,1.83-.25,4.68,4.68,0,0,0,1.95-2.88,21,21,0,0,0,.39-2.24A4.11,4.11,0,0,1,60.75,78a1.46,1.46,0,0,1,2-.73,2.76,2.76,0,0,0,2.87-.5c1.32-1.17,1.24-3,2.25-4.34,1.17-1.55,2.24.41,3.57.6a3.6,3.6,0,0,0,3.43-2c.61-1.1.8-3.39,2.19-3.85,1.1-.36,1.74,1,2.62,1.34a2.27,2.27,0,0,0,1.84,0c1.4-.61,1.47-2.11,2.34-3.16,1.32-1.61,1.65.16,2.21.89a2.25,2.25,0,0,0,1.28.9,2.2,2.2,0,0,0,2.13-.87c.54-.61,1.24-2.59,2.12-2.75,1.08-.19,2,2,3.25,2.17a2.13,2.13,0,0,0,1.69-.52c.51-.4,1-1.56,1.48-.87.36.49.33,1.33.74,1.89a15.28,15.28,0,0,0,2.08,2,9.5,9.5,0,0,1,2,2.69,6.79,6.79,0,0,0,1.6,1.74l-.22-.81c-1,2.29.47,4.66.68,6.95.1,1.07,1.78,1.08,1.68,0-.19-2.06-1.58-4.5-.74-6.51a.81.81,0,0,0-.21-.82,5.31,5.31,0,0,1-1.53-1.87,7.71,7.71,0,0,0-1.64-2.21,23.55,23.55,0,0,1-2-1.85c-.64-.79-.54-1.68-1.05-2.5A1.75,1.75,0,0,0,97,62.4c-.55.32-.8,1-1.31,1.32-.89.57-1.4-.56-2-1.09-2.18-2-3.76,0-5,1.86-.41.63-.65,1.29-1.34.56-.47-.5-.53-1.28-1.07-1.77a2.31,2.31,0,0,0-3.31.44,6.67,6.67,0,0,0-1,1.77c-.36.72-.66,1.64-1.92,1.17-.29-.11-.56-.53-.83-.71a2.67,2.67,0,0,0-3.42,0,7.36,7.36,0,0,0-2,3.42c-.46,1.24-1.4,2.42-2.74,1.54a4.44,4.44,0,0,0-1.65-.9,3.1,3.1,0,0,0-3.13,1.9,14.12,14.12,0,0,0-.74,1.86,5.34,5.34,0,0,1-.63,1.32c-.62.82-1.14.6-1.95.36a2.86,2.86,0,0,0-3.3,1.21c-1.2,1.56-.89,3.39-1.56,5.12a3.17,3.17,0,0,1-.79,1.3c-.77.56-1.29-.06-2.06-.17a1.86,1.86,0,0,0-1.56.39c-1.22,1-.48,3-1.26,4.32C50.68,90.49,46.7,92,46,95.46c-.2,1.06,1.42,1.51,1.62.45Z"/><path class="cls-2" d="M57.13,92.43a2.59,2.59,0,0,1-.24-2c.35-1.11,1.22-.94,2.1-.77a3,3,0,0,0,2.26-.11c1.69-.95,1.78-3,2.14-4.67.22-1,.85-2,2-1.71a12.34,12.34,0,0,1,1.47.61,3.15,3.15,0,0,0,2.43,0c2-1,1.94-3.47,3-5.11.45-.67,1.1-1.25,1.86-.8.35.21.58.63.91.87a2.55,2.55,0,0,0,2.42.28c2.31-.83,1.93-3.76,3.84-4.8,1.11-.6,1.93,1,2.82,1.4a2.34,2.34,0,0,0,2.28-.06,5.09,5.09,0,0,0,1.61-1.89c.27-.44.6-1.34,1.16-1.52,1-.31,1,.63,1.4,1.14,1.68,1.92,4.53,0,6.57.07,3.63.08,4.26,4.12,5.83,6.61.57.91,2,.07,1.45-.85-1.39-2.21-1.93-5.15-4.29-6.59A6.07,6.07,0,0,0,97,71.66a14.07,14.07,0,0,0-1.94.23,18.66,18.66,0,0,1-2.25.59c-1.21,0-1.26-1.67-2.33-2.09a2.58,2.58,0,0,0-2.58.68c-.9.78-1.3,2.71-2.49,2.9s-1.85-1.37-3-1.58c-2.25-.42-3.23,1.93-4.09,3.51-.55,1-1.35,1.93-2.49,1.17-.33-.22-.55-.62-.92-.83a2.55,2.55,0,0,0-2.74.23,5.36,5.36,0,0,0-1.85,2.59c-.5,1.32-.85,3.67-2.76,3.18-1.07-.28-1.86-1-3-.78a3.35,3.35,0,0,0-2.41,2c-.57,1.17-.36,2.52-.92,3.71-.9,1.86-2.14.32-3.62.59-2.59.48-2.76,3.66-1.87,5.56.45,1,1.9.12,1.45-.85Z"/><path class="cls-1" d="M83.77,96.12,87,94A26.22,26.22,0,0,1,90,92c1.47-.7,3.47-.73,5.06-1,2.21-.32,4.35.13,5.88-1.83.6-.76,1.2-2.27,2.23-2.51a3.43,3.43,0,0,1,1.23.14,3.18,3.18,0,0,0,1.53-.16c1-.34.58-2-.45-1.62s-1.8-.26-2.75,0A4.5,4.5,0,0,0,100.47,87a12.34,12.34,0,0,1-1.07,1.5,2.78,2.78,0,0,1-2.18.73,22.24,22.24,0,0,0-2.81.26c-1.66.24-3.66.31-5.19,1.07a30,30,0,0,0-3,1.95c-1.1.73-2.2,1.46-3.31,2.18-.9.59-.06,2,.85,1.45Z"/><path class="cls-2" d="M69.83,87.78c.62-1,1.54-2.4,2.82-2.45.94,0,1.8.74,2.78.74,1.55,0,2.59-1.28,3.43-2.43S80.41,81.2,82,81.91c.71.31,1.19.79,2,.78,1.68,0,2.64-1.56,3.58-2.72,1.6-2,2.86-.5,4.56.39a2.92,2.92,0,0,0,3.36-.16c.59-.45,1-1.27,1.79-1.43a4.82,4.82,0,0,1,2.18.47,11.51,11.51,0,0,0,4.28,1.12c1.08,0,1.09-1.73,0-1.68-2.87.15-5.82-3.1-8.43-.67-.84.79-1.26,1.46-2.5.82-.76-.4-1.39-1-2.17-1.33a3.24,3.24,0,0,0-3.75.69c-.68.65-1.1,1.53-1.78,2.18-1.3,1.23-1.93,0-3.15-.36-1.67-.5-3.11.77-4,2-.78,1-1.47,2.59-3.06,2.29-1-.19-1.61-.76-2.68-.6-1.75.25-2.92,1.85-3.83,3.23-.59.91.86,1.75,1.45.85Z"/><path class="cls-2" d="M73.49,127.84c-1.49.45-3.66,1.18-5,0-1.5-1.37,0-2.12.6-3.33.75-1.54-.64-2.3-1.78-2.89-.47-.24-.94-.34-.64-1,.21-.43,1.25-.62,1.69-.86a2.72,2.72,0,0,0,1.53-2.09c.14-1.06-.55-2-.48-3,.11-1.42,1.71-.88,2.65-1.6,2.3-1.77-.13-6,3.62-6.37,1.84-.16,3-.3,3.71-2.2.29-.77.42-1.59.68-2.37.14-.44.35-1.12.81-1.35s1.4.2,2,.32a3.31,3.31,0,0,0,2.32-.41c1.47-.68,3-1.3,4.46-1.87,2.61-1,5.27-1.79,7.92-2.63a11.47,11.47,0,0,0,4.08-1.69c.81-.71-.38-1.9-1.19-1.19-1.13,1-3.39,1.28-4.78,1.71-2.83.88-5.64,1.8-8.39,2.93-1.34.55-2.93,1.65-4.37,1.41-1-.16-1.73-.6-2.73-.1-1.68.84-1.75,2.93-2.3,4.48s-1.76,1-3.2,1.37A4,4,0,0,0,72.14,107c-.7,1.23-.2,2.54-.62,3.8-.48,1.43-2.31.78-3.2,1.87a3.23,3.23,0,0,0-.49,2.62,3.86,3.86,0,0,1,.13,2.16c-.33,1.11-1.06,1-1.92,1.55-1.77,1.14-1.44,3.07.29,4,.23.12,1.1.34,1.17.57.15.46-.87,1.18-1.07,1.58a3.11,3.11,0,0,0,0,2.71c1.4,3,4.89,2.4,7.45,1.64a.84.84,0,0,0-.44-1.63Z"/><path class="cls-1" d="M132.77,69l5.29-3.44c1.88-1.23,3.71-2.83,6-2.95,1.3-.06,2.48-.06,3.51-1s1.58-2.86,3.18-3.3,3.07,0,4.5-.76a8.53,8.53,0,0,0,2.54-2.5c1.05-1.32,1.89-2.25,3.7-2.25,1.58,0,2.95.28,4.33-.67A8.75,8.75,0,0,0,168,49.64a4.35,4.35,0,0,1,4.26-2.35,5.91,5.91,0,0,0,3.79-.87,15.32,15.32,0,0,0,2.5-2.94c1.31-1.61,2.72-1.19,4.56-1.54a5.49,5.49,0,0,0,3-1.89,21.86,21.86,0,0,1,2.51-2.91c1.63-1.25,3.32-.11,5.14-.41a4.22,4.22,0,0,0,2.89-2.3,6,6,0,0,1,1.58-2.06,6.31,6.31,0,0,1,3.12-.65c2.59-.17,5.95-1.22,5.5-4.44-.15-1.07-1.77-.62-1.62.44.28,2-2.87,2.24-4.13,2.33A7.16,7.16,0,0,0,197,31.21,12.13,12.13,0,0,0,195,34c-1.35,1.88-3.08.73-5,.87-2.45.19-3.6,2.39-5.08,4-1.24,1.39-2.45,1.39-4.22,1.56a4.68,4.68,0,0,0-3.06,1.49c-.84.88-1.38,2-2.29,2.87-1.41,1.29-3.24.62-5,.9-2.84.47-3.3,3.1-5.16,4.81-1.36,1.25-3.12.5-4.76.7a4.76,4.76,0,0,0-2.7,1.36c-.87.83-1.47,1.91-2.31,2.76-1.35,1.37-2.93,1-4.66,1.33a4.54,4.54,0,0,0-3,2,5.7,5.7,0,0,1-1.78,2c-1,.51-2.21.17-3.29.39-1.84.37-3.43,1.72-5,2.72l-5.82,3.78c-.9.59-.06,2,.85,1.46Z"/><path class="cls-1" d="M127.68,75.42q7-4.53,13.93-9a6.87,6.87,0,0,1,3-1.33,9.85,9.85,0,0,0,3.06-.33c1.31-.56,1.84-1.77,2.67-2.82,1.44-1.81,3.58-1,5.5-1.66a7.49,7.49,0,0,0,3.09-2.74,8,8,0,0,1,1.66-1.77,4.83,4.83,0,0,1,3.09-.42,4.79,4.79,0,0,0,4.13-1.5c1-1.06,1.48-2.53,2.58-3.43,1.6-1.33,3.92-.28,5.77-1a6.76,6.76,0,0,0,2.79-2.59,5.87,5.87,0,0,1,1.9-2c1-.51,2.25-.23,3.34-.44a5.77,5.77,0,0,0,3.3-2.19c1.06-1.26,2-3.15,3.88-3.27s3.46.85,5.09-.43,1.78-3.56,4-4.11c1.94-.48,3.9,0,5.7-1.12a3.41,3.41,0,0,0,1.8-3.54c-.15-1.07-1.77-.61-1.62.45.33,2.4-3.75,2.25-5.14,2.4a5.39,5.39,0,0,0-3.84,1.83c-1.2,1.47-1.52,3.35-3.86,3.09-1.61-.18-3-.47-4.42.48a12.17,12.17,0,0,0-2.54,2.72,7.35,7.35,0,0,1-1.47,1.53c-1,.71-2.2.5-3.37.66a5,5,0,0,0-3.35,1.93c-1.17,1.43-1.89,3.11-4,3.25-1.61.11-3.14-.23-4.58.69a10.54,10.54,0,0,0-2.63,3.15,4.37,4.37,0,0,1-1.55,1.56,6.65,6.65,0,0,1-3,.14,4.93,4.93,0,0,0-3.87,1.54c-1,1-1.67,2.45-2.89,3.24-1.51,1-3.47.3-5.09,1s-1.87,2.13-3,3.21c-.93.92-2,.71-3.19.79a6.5,6.5,0,0,0-2.64.81c-2.6,1.41-5,3.24-7.52,4.85L126.83,74c-.91.58-.07,2,.85,1.45Z"/><path class="cls-2" d="M106.46,105.51l27.11-38.29c8.78-12.41,17.68-24.75,26-37.45,4.69-7.14,9.19-14.4,13.38-21.85a.84.84,0,0,0-1.45-.84c-7.38,13.13-15.76,25.65-24.39,38-8.85,12.66-17.83,25.24-26.76,37.86L105,104.66c-.63.89.83,1.73,1.45.85Z"/><path class="cls-1" d="M86.37,89.45a19,19,0,0,0,2.47-1.92,8.1,8.1,0,0,1,2.23-1.63,27.22,27.22,0,0,1,5.65-1.28c2.14-.39,4.54.13,6.09-1.7.74-.87,1.21-2.15,2.28-2.67,1.33-.65,3-.22,4.43-.7,1-.34.58-2-.45-1.62-1.42.48-3,.14-4.37.66a5.27,5.27,0,0,0-2.44,2.23A4.74,4.74,0,0,1,101,82.36a5,5,0,0,1-2.46.32,18,18,0,0,0-2.43.36,30.33,30.33,0,0,0-5.58,1.29c-1.88.74-3.29,2.56-5,3.67-.9.59-.06,2,.85,1.45Z"/><path class="cls-2" d="M76.72,129.32c-5.24-8.67-.31-19.18,8.07-23.55a23.62,23.62,0,0,1,6.63-2.25c1.94-.36,4.15-.24,5.71-1.63,1.76-1.55,2.73-4.22,3.88-6.23q2-3.42,3.93-6.83,16.28-27.9,34.7-54.48Q150,19.46,161,5c.66-.86-.8-1.7-1.45-.85q-20.13,26.48-38.09,54.5-8.93,13.93-17.28,28.22c-1.38,2.35-2.75,4.72-4.1,7.09-.68,1.19-1.36,2.37-2,3.56s-1.3,2.81-2.54,3.48a11.67,11.67,0,0,1-3.72.74,23.46,23.46,0,0,0-3.53.81,24.12,24.12,0,0,0-5.83,2.64c-8.27,5.17-12.41,16.17-7.11,24.95a.84.84,0,0,0,1.45-.85Z"/><path class="cls-2" d="M53,213.49c25.19-15.9,50.42-31.94,73.25-51.16a270.57,270.57,0,0,0,31.95-31.47c10.48-12.33,19.33-25.81,27.45-39.78A547.1,547.1,0,0,0,212,40c.44-1-1-1.84-1.45-.85C203.69,54.53,196,69.5,187.69,84.13c-8.14,14.39-16.8,28.5-27.22,41.37-18.82,23.23-42.11,42.3-66.57,59.29C80.25,194.27,66.21,203.17,52.16,212c-.92.58-.07,2,.84,1.46Z"/><path class="cls-1" d="M14.84,81c11,4.06,22.35,7.51,31.41,15.32.81.7,2-.48,1.19-1.19-9.3-8-20.84-11.58-32.15-15.75-1-.38-1.46,1.25-.45,1.62Z"/><path class="cls-1" d="M40.18,99.89c6.48-2.75,13.07-5.21,19.71-7.55q4.88-1.71,9.77-3.38c3.08-1,6.4-2.57,9.71-2.49,3,.08,7,2.65,5.38,6.11-1.22,2.56-4.73,3.91-7,5.23l-17.09,9.7a.84.84,0,0,0,.85,1.45L77.19,100c3.44-2,9.84-4.34,9.58-9.25S81,84.34,77,85a56.5,56.5,0,0,0-9,2.78q-4.44,1.51-8.86,3.07c-6.66,2.36-13.28,4.85-19.8,7.61-1,.42-.13,1.86.85,1.45Z"/><path class="cls-1" d="M55.19,104.83A8.09,8.09,0,0,1,57,119.93c-1,.5-.11,2,.85,1.45a9.77,9.77,0,0,0-2.23-18.17.84.84,0,0,0-.45,1.62Z"/><path class="cls-1" d="M60.56,116.77a8.2,8.2,0,0,1,.29,7.93A8.31,8.31,0,0,1,54.76,129c-1.07.16-.62,1.78.44,1.62A9.72,9.72,0,0,0,62,115.92a.84.84,0,0,0-1.45.85Z"/><path class="cls-1" d="M59.66,128.48c1.32,3.13-.28,6.58-2.74,8.66-2.87,2.43-6.83,3.19-10.41,3.93-1,.22-.61,1.84.45,1.62,4-.83,8.33-1.77,11.45-4.63,2.68-2.45,4.35-6.51,2.88-10a.89.89,0,0,0-1-.59.86.86,0,0,0-.59,1Z"/><path class="cls-1" d="M54.18,139.2c-2,8-12.22,8.87-19,8.72a45.65,45.65,0,0,1-11.44-1.73c-1.72-.49-4.72-1.16-5-3.34s2.46-2.38,4.06-2.19c1.07.13,1.07-1.56,0-1.68-1.69-.2-3.77,0-5,1.35a3.65,3.65,0,0,0-.16,4.36c1.13,1.81,3.36,2.47,5.29,3a48.38,48.38,0,0,0,7.84,1.57c8.33,1,22.42.6,24.93-9.65.25-1.05-1.37-1.5-1.63-.45Z"/><path class="cls-1" d="M4,129.56c6,3.37,12.2,6.5,18.49,9.34,5.81,2.63,11.84,5.44,18.35,5.33a.84.84,0,0,0,0-1.68c-6.61.11-12.79-2.93-18.66-5.63s-11.67-5.65-17.33-8.81A.84.84,0,0,0,4,129.56Z"/><path class="cls-1" d="M14.28,80.34c2.13,4.22,4.29,8.65,4.79,13.41s-1.27,9-3.44,13.22c-3.85,7.44-8.32,14.87-15.22,19.86-.45.32-.63,1.16,0,1.45l3.41,1.52c1,.44,1.83-1,.85-1.45l-3.41-1.52v1.45c7.46-5.39,12.28-13.42,16.36-21.5,2.12-4.21,3.64-8.53,3.1-13.33-.57-5-2.77-9.55-5-14-.49-1-1.94-.12-1.45.84Z"/><path class="cls-3" d="M107.12,19.71A196.94,196.94,0,0,1,110,44.65l1.27-.73-5.51-3.79-.85,1.45c1.81,1.19,2.34,4.22,4.85,4.37,1.53.1,2.62-1,3.63-2l4.27-4.27a.84.84,0,0,0-1.18-1.19l-3.39,3.38c-.81.81-2.32,2.89-3.65,2.3-.79-.35-1.28-1.36-1.75-2a7.5,7.5,0,0,0-1.93-2c-.91-.6-1.73.84-.85,1.45l5.51,3.79a.84.84,0,0,0,1.26-.72,200.4,200.4,0,0,0-2.94-25.39c-.19-1.06-1.81-.61-1.62.45Z"/></g></g></svg>