<svg xmlns="http://www.w3.org/2000/svg" viewBox="0 0 258.63 161.66"><defs><style>.cls-1{fill:#f06;}.cls-2{fill:#903;}.cls-3{fill:#06f;}</style></defs><title>Recurso 3</title><g id="Capa_2" data-name="Capa 2"><g id="Capa_2-2" data-name="Capa 2"><path class="cls-1" d="M69.74,62,76,82c.25.79,1.51.45,1.26-.35L71,61.6a.65.65,0,0,0-1.25.35Z"/><path class="cls-1" d="M35.76,74.57A211.76,211.76,0,0,1,58.22,99.26c.5.66,1.63,0,1.13-.66A215.19,215.19,0,0,0,36.68,73.65c-.6-.58-1.52.34-.92.92Z"/><path class="cls-1" d="M82.33,135q10.32,11.8,19.47,24.55c.48.68,1.61,0,1.12-.65Q93.7,146,83.25,134.1c-.55-.63-1.47.29-.92.92Z"/><path class="cls-1" d="M89.3,157l-1.19-24.62c0-.83-1.34-.84-1.3,0L88,157c0,.84,1.34.84,1.3,0Z"/><path class="cls-1" d="M101.77,158.68a327.63,327.63,0,0,1,2.75-41.41c.1-.83-1.2-.82-1.3,0a327.63,327.63,0,0,0-2.75,41.41.65.65,0,0,0,1.3,0Z"/><path class="cls-2" d="M58.94,1.34a43.17,43.17,0,0,0,7.14,7.22A30.73,30.73,0,0,0,75,13.17c6.28,2.15,13.89,3.62,17.42,9.92a.65.65,0,0,0,1.13-.66c-3.29-5.87-10-7.91-16-9.8A34.63,34.63,0,0,1,67.5,8,40.67,40.67,0,0,1,59.86.42c-.52-.65-1.44.28-.92.92Z"/><path class="cls-1" d="M1,52.11A167.07,167.07,0,0,1,46.18,31.73Q53.55,29.6,61.06,28c.82-.17.48-1.42-.34-1.25A183,183,0,0,0,12.12,44c-4,2.14-8,4.48-11.82,7-.7.46,0,1.59.66,1.13Z"/><path class="cls-1" d="M.63,52.2a.65.65,0,0,0,0-1.3.65.65,0,0,0,0,1.3Z"/><path class="cls-1" d="M78.34,25.37a226.86,226.86,0,0,1,53.56-.45A205,205,0,0,1,177,35.06a162.69,162.69,0,0,1,37.63,18.68A114.68,114.68,0,0,1,242.1,79.33a80.37,80.37,0,0,1,14.47,30.44c.31,1.35.57,2.72.8,4.09.13.83,1.39.48,1.25-.34A78.71,78.71,0,0,0,245.7,82.13a110.93,110.93,0,0,0-25.84-26.27A157.15,157.15,0,0,0,183.23,36a200.54,200.54,0,0,0-44.76-11.53,226.45,226.45,0,0,0-53-1.18c-2.38.23-4.75.49-7.13.79-.82.11-.83,1.41,0,1.31Z"/><path class="cls-1" d="M78.34,25.37a.66.66,0,0,0,0-1.31.66.66,0,0,0,0,1.31Z"/><path class="cls-1" d="M60.89,28.07a.66.66,0,0,0,0-1.31.66.66,0,0,0,0,1.31Z"/><path class="cls-2" d="M30.51,18.4a58,58,0,0,0,8.12,6.27,30.68,30.68,0,0,0,7.53,3.92C50.89,30,56.69,30,61.22,28c.76-.35.1-1.47-.66-1.13-4.23,1.93-9.89,1.78-14.28.41a30.46,30.46,0,0,1-7-3.71,56.39,56.39,0,0,1-7.86-6.07c-.62-.56-1.54.36-.92.92Z"/><path class="cls-2" d="M60.56,28C65.12,30.46,67,35.69,69.7,39.8s6.52,8.4,10.9,11c1.78,1,4.09,1.9,6.15,1.18a4.6,4.6,0,0,0,2.94-4.22c.13-2.39-1.12-4.44-2.52-6.27a28.35,28.35,0,0,1-4.41-7.68,42,42,0,0,0-3.46-8,22.14,22.14,0,0,0-5.94-6.22c-.69-.49-1.34.64-.66,1.12C77,23.75,79.3,28,81.06,32.87a31.66,31.66,0,0,0,2.73,6.19c1.28,2,3.19,3.76,4.12,6s.56,5.47-2.34,5.81c-2.15.25-4.31-1.11-5.94-2.35a39.4,39.4,0,0,1-9.82-11c-2.37-3.93-4.38-8.39-8.59-10.68-.74-.4-1.39.73-.66,1.13Z"/><path class="cls-2" d="M30.54,18.45c5.85,1.44,11.63-2.26,16.3-5.37a37.74,37.74,0,0,0,6.41-5.21A25.66,25.66,0,0,0,55.9,4.63c.77-1.12,1.54-3.12,3.07-3.32.82-.11.83-1.41,0-1.3-2.41.32-3.29,2.73-4.56,4.49A29.6,29.6,0,0,1,48,10.73a57.49,57.49,0,0,1-7.24,4.5c-3,1.59-6.39,2.81-9.82,2-.82-.2-1.16,1.06-.35,1.26Z"/><path class="cls-2" d="M60.4,98.65a11.35,11.35,0,0,0,2.33,0,7.84,7.84,0,0,0,2.09-.77,12.88,12.88,0,0,1,5-1.09.66.66,0,0,0,0-1.31,14.51,14.51,0,0,0-5,1,11,11,0,0,1-2.11.86,9.07,9.07,0,0,1-2.27,0c-.83,0-.83,1.25,0,1.3Z"/><path class="cls-2" d="M67.54,96.32c1.53-5,4.8-9.18,8.35-12.91A16.8,16.8,0,0,1,81.74,79a7.6,7.6,0,0,1,7.57,1.17c.64.52,1.57-.39.92-.92A8.86,8.86,0,0,0,83,77.34,14.08,14.08,0,0,0,76,81.44c-4.17,4-8,8.93-9.72,14.53-.25.8,1,1.15,1.25.35Z"/><path class="cls-2" d="M89.29,79.13c1.21-1.36,1.35-3.3,2.51-4.66,1.43-1.67,4.17-.64,5.52.6,3.5,3.22,2.1,8.37-1,11.28-.62.57.31,1.49.92.92,2.85-2.65,4.5-6.92,2.82-10.65a7.53,7.53,0,0,0-3.67-3.73c-1.65-.74-3.83-.88-5.25.42s-1.47,3.48-2.74,4.9c-.55.62.36,1.54.92.92Z"/><path class="cls-2" d="M92.46,73.17V63.65a15,15,0,0,1,.09-2.76c.34-1.74,2-2.57,3.49-3.07a14.15,14.15,0,0,1,5.09-.93c4.61.27,4,6.52,3.2,9.59A52.15,52.15,0,0,1,99.56,77.7c-.41.73.72,1.39,1.12.65a57.92,57.92,0,0,0,4.54-10.25c1-3.13,1.68-6.77.12-9.85s-4.7-2.9-7.55-2.25c-2.46.57-5.61,1.46-6.39,4.21-.53,1.84-.22,4-.23,5.92l0,7a.66.66,0,0,0,1.31,0Z"/><path class="cls-2" d="M102.73,73.06a37.89,37.89,0,0,0,4.5,6A11.26,11.26,0,0,1,110,87.31c-.22,3.15-.73,6.29-1,9.44a62.07,62.07,0,0,1-1.29,9.71c-1.43,5.86-5,10.93-9,15.36A50,50,0,0,1,86,132.08a39.64,39.64,0,0,1-8.3,3.45,34.35,34.35,0,0,1-4.28.94c-1.4.22-4,.87-5.24-.14v.92c6.23-5,7.47-13.87,4.52-21a27.45,27.45,0,0,0-7.34-9.9,39.08,39.08,0,0,1-4.92-4.79c-.63-.8-1.71-2.2-.42-2.83.43-.21,1.7-.65,2.08-.2.55.64,1.47-.28.92-.92-1-1.21-4.21-.34-4.79,1s.45,2.8,1.23,3.78a34.85,34.85,0,0,0,4.13,4.11,29.56,29.56,0,0,1,7.16,8.58A19,19,0,0,1,72.84,126a15.62,15.62,0,0,1-5.59,10.33.65.65,0,0,0,0,.92c1.89,1.58,5.09.74,7.3.34a37.29,37.29,0,0,0,8.14-2.46,48,48,0,0,0,14.42-9.76c4.35-4.22,8.44-9.29,10.7-15,2.56-6.42,2.26-13.55,3.15-20.29.47-3.55.62-6.89-1.36-10-1.72-2.72-4.25-4.83-5.75-7.7-.39-.74-1.51-.08-1.12.66Z"/><path class="cls-1" d="M24.48,80.46A145.19,145.19,0,0,1,67.54,62a183.57,183.57,0,0,1,52.3-5.5,177.59,177.59,0,0,1,47.54,8.07A137,137,0,0,1,205.8,83.41C216,90.7,225,99.77,231.32,110.63c.73,1.27,1.42,2.56,2.08,3.86.37.75,1.49.09,1.12-.66-5.59-11.14-14.07-20.63-23.81-28.34A132.26,132.26,0,0,0,173.5,65.25a174.79,174.79,0,0,0-47.11-9.74A187.34,187.34,0,0,0,73.58,59.2a152.26,152.26,0,0,0-45,17.21q-2.38,1.41-4.71,2.92c-.7.46,0,1.58.65,1.13Z"/><path class="cls-1" d="M24.15,80.54a.65.65,0,0,0,0-1.3.65.65,0,0,0,0,1.3Z"/><path class="cls-1" d="M136.72,57.87c-1.57,13-3.61,25.9-5.58,38.82-2.3,15-4.65,29.91-6.84,44.88-1,6.47-1.88,12.94-2.66,19.44-.1.83,1.2.82,1.3,0,1.56-13,3.6-25.9,5.58-38.82,2.29-15,4.65-29.91,6.84-44.88.95-6.47,1.88-13,2.66-19.44.1-.83-1.2-.82-1.3,0Z"/><path class="cls-1" d="M101.58,159.14c11.09-11.07,22.73-21.58,34.33-32.11,12.71-11.55,25.49-23,38-34.87,6-5.72,12-11.51,17.7-17.54.58-.61-.34-1.53-.92-.92-10.77,11.36-22.31,22-33.85,32.56-12.67,11.62-25.48,23.07-38.09,34.74-6.1,5.65-12.17,11.34-18,17.22a.65.65,0,0,0,.92.92Z"/><path class="cls-1" d="M132.85,161.18c6.18-26.3,14.65-52,22.79-77.73,2.25-7.12,4.48-14.24,6.64-21.39a.65.65,0,0,0-1.26-.35c-7.8,25.86-16.56,51.43-23.82,77.45-2,7.19-3.9,14.41-5.6,21.67-.19.82,1.06,1.17,1.25.35Z"/><path class="cls-1" d="M132.69,161.47c19.29-20.18,38.07-40.85,57.62-60.78q8.12-8.28,16.44-16.35c.61-.58-.31-1.5-.92-.92-20.08,19.4-39,39.92-58.13,60.27q-7.94,8.46-15.94,16.86c-.57.6.35,1.52.93.92Z"/><path class="cls-1" d="M144.89,160.79A560.13,560.13,0,0,0,209.75,118q8.64-6.61,17-13.57c.64-.54-.28-1.45-.92-.92a559.16,559.16,0,0,1-63,45.22q-9.19,5.67-18.61,11a.65.65,0,0,0,.66,1.12Z"/><path class="cls-3" d="M111.53,68.24c1.4,2.76,3.11,5.86,6.07,7.19s5.93.22,8.17-1.8c2.68-2.44,4.18-5.93,5.27-9.32a68.8,68.8,0,0,0,2.41-12.07c.15-1.17,1.12-4.08-.78-4.3a8,8,0,0,0-2.83.62l-3.9,1.06.35,1.25a48.31,48.31,0,0,0,7.5-3.69l-.89-.24,2.58,4.75c.4.74,1.52.08,1.12-.65L134,46.29a.66.66,0,0,0-.89-.24,45.83,45.83,0,0,1-7.19,3.57c-.76.29-.48,1.48.35,1.25L129.7,50l1.46-.4,1-.27c.4.06.5.27.3.64a11.17,11.17,0,0,1-.35,2.79q-.22,1.77-.51,3.54a42.8,42.8,0,0,1-3.51,12c-1.48,3-4.28,6.59-8,6.41s-5.89-4.16-7.4-7.13c-.38-.74-1.5-.09-1.12.66Z"/><path class="cls-3" d="M65.27,47.19a35.46,35.46,0,0,0,17.87,23L83.29,69a14.45,14.45,0,0,1-5.54,1.1c-.72,0-.92,1.13-.18,1.27,2.37.45,5.12.08,6.64-2,1.15-1.58,1.48-4.59-.47-5.74a.65.65,0,0,0-.66,1.13c1.49.87.62,3.4-.31,4.29a5.52,5.52,0,0,1-4.85,1.06l-.17,1.28a15.45,15.45,0,0,0,5.89-1.15A.66.66,0,0,0,83.79,69,34.13,34.13,0,0,1,66.53,46.85c-.19-.82-1.45-.47-1.26.34Z"/></g></g></svg>