<svg xmlns="http://www.w3.org/2000/svg" viewBox="0 0 347.05 182.01"><defs><style>.cls-1{fill:#06f;}.cls-2{fill:#903;}.cls-3{fill:#f06;}</style></defs><title>Recurso 5</title><g id="Capa_2" data-name="Capa 2"><g id="Capa_2-2" data-name="Capa 2"><path class="cls-1" d="M141,181.13a15.68,15.68,0,0,0-3.24-4.73l-.26,1a25.86,25.86,0,0,1,4.86-1.45.59.59,0,1,0-.31-1.13,25.86,25.86,0,0,0-4.86,1.45.59.59,0,0,0-.26,1,14.76,14.76,0,0,1,3,4.49.59.59,0,0,0,1-.59Z"/><path class="cls-1" d="M136.71,177.78a39.4,39.4,0,0,0,28.6,1.76c.72-.23.41-1.37-.31-1.14a38.12,38.12,0,0,1-27.7-1.64c-.68-.32-1.28.7-.59,1Z"/><path class="cls-1" d="M212.83,180.8l-4.89-1.72.26,1,4.8-4a.59.59,0,0,0-.83-.83l-4.8,4a.6.6,0,0,0,.26,1l4.89,1.71a.59.59,0,0,0,.72-.41.6.6,0,0,0-.41-.72Z"/><path class="cls-2" d="M124.86,30.36c-1.15,4.65.3,9.39,1.5,13.88a71.8,71.8,0,0,0,4.72,13.3,33.52,33.52,0,0,0,7.41,10,24.62,24.62,0,0,0,5,3.5c1.95,1,4.6,1.29,5.29,3.68.57,2,.81,4.06,1.51,6a14.17,14.17,0,0,0,3.05,4.8c.52.56,1.35-.28.84-.83a12.51,12.51,0,0,1-2.85-4.55c-.55-1.64-.85-3.37-1.25-5a4.74,4.74,0,0,0-2.94-3.77,29.2,29.2,0,0,1-5.39-2.7c-7.37-5-11.07-13.57-13.48-21.86-.72-2.46-1.4-4.94-2-7.44a18.61,18.61,0,0,1-.34-8.68.59.59,0,0,0-1.13-.31Z"/><path class="cls-2" d="M153.22,39.89a74,74,0,0,0,6.17,16.68c1.31,2.54,2.85,5,4.11,7.51a23.51,23.51,0,0,1,2.31,8.9,85,85,0,0,1-1.2,19c-.47,3-1.08,5.89-1.81,8.8-.62,2.51-1.34,5.28-.18,7.75,2.08,4.43,7.73,4.67,11.65,2.89,4.34-2,7.85-5.74,10.32-9.75a46.78,46.78,0,0,0,5.26-13.11c.61-2.41,1.09-4.85,1.49-7.3a31.34,31.34,0,0,0,.6-8.9c-.39-3.16-1.88-6-3.33-8.78l-4.93-9.47L173.6,34.72c-.35-.68-1.37-.08-1,.59l8.36,16.07c2.75,5.27,5.72,10.49,8.22,15.89a17.45,17.45,0,0,1,1.67,8.92,65.38,65.38,0,0,1-1.18,7.86,57.2,57.2,0,0,1-4.12,13.35,29,29,0,0,1-8.15,10.69,13.48,13.48,0,0,1-7.49,3.24,6.59,6.59,0,0,1-6.11-3.14c-1.38-2.61-.15-5.79.48-8.44.67-2.84,1.23-5.71,1.66-8.6A92.19,92.19,0,0,0,167,74.07a25.45,25.45,0,0,0-1.7-8.76,80.82,80.82,0,0,0-4.12-7.81,72.31,72.31,0,0,1-6.86-17.93c-.18-.73-1.31-.42-1.14.32Z"/><path class="cls-2" d="M164.64.89a54.85,54.85,0,0,0,11.13,14.19c2.18,2.1,4.46,4.09,6.76,6s4.67,4.08,7.56,5.38A18.53,18.53,0,0,1,196.73,31a18.8,18.8,0,0,1,3.72,6.59,26.14,26.14,0,0,1-.17,16.22c-2.14,6.84-6.2,12.88-10.17,18.78-.42.63.6,1.22,1,.59,6.53-9.72,13.69-20.81,11.21-33.09a19.92,19.92,0,0,0-7.44-12.32,20.75,20.75,0,0,0-3.82-2.07,20.3,20.3,0,0,1-4.63-2.77c-2.47-2-4.88-4.11-7.25-6.24C173.91,11.9,169,6.67,165.66.3c-.35-.68-1.37-.08-1,.59Z"/><path class="cls-2" d="M130.71,99a4.28,4.28,0,0,0,4.44.74,3.91,3.91,0,0,0,2.46-3.7,4.13,4.13,0,0,0-2.44-3.81,4,4,0,0,0-4.52,1,3.67,3.67,0,0,0,.39,5,.59.59,0,0,0,.83,0,.59.59,0,0,0,0-.83,2.47,2.47,0,0,1-.53-3,2.69,2.69,0,0,1,3-1.14,3,3,0,0,1,.69,5.28,3.09,3.09,0,0,1-3.53-.31c-.56-.51-1.4.32-.84.83Z"/><path class="cls-2" d="M137,94a167,167,0,0,1,25.32-11.55c1.12-.39,2.62-1.19,3.19.3a5.37,5.37,0,0,1,0,3,8.49,8.49,0,0,1-2.81,4.42c-3,2.61-7.18,4-10.87,5.14a60.57,60.57,0,0,1-15.15,2.82c-.75,0-.76,1.21,0,1.17A61.93,61.93,0,0,0,152,96.5c4-1.28,8.65-2.78,11.83-5.72a9.51,9.51,0,0,0,2.88-4.73c.35-1.52.44-3.67-.76-4.88a2.07,2.07,0,0,0-2.06-.5,32.51,32.51,0,0,0-3.7,1.31c-2.45.9-4.86,1.86-7.26,2.88A171.68,171.68,0,0,0,136.42,93c-.66.37-.06,1.39.6,1Z"/><path class="cls-2" d="M45.27,61.31a123,123,0,0,1,22,1.95,166.19,166.19,0,0,1,20.34,5.33c6.44,2,12.85,4.22,19.39,5.94,3.32.88,6.67,1.64,10.06,2.21s6.62.8,10,1.15c3.7.4,7.56,1.09,10.65,3.32,2.68,1.92,4.67,4.9,4.48,8.29,0,.76,1.13.76,1.17,0,.34-5.82-4.78-10.06-9.89-11.61a52.88,52.88,0,0,0-10.25-1.54,90.4,90.4,0,0,1-10.85-1.73c-14.19-3.13-27.61-9-41.84-11.92a123.45,123.45,0,0,0-25.21-2.56.59.59,0,0,0,0,1.17Z"/><path class="cls-2" d="M58.89,89.73a431.16,431.16,0,0,0,54.57,6.34q7.82.41,15.65.52a.59.59,0,0,0,0-1.18,429.58,429.58,0,0,1-54.68-4.33Q66.8,90,59.2,88.6c-.74-.13-1.06,1-.31,1.13Z"/><path class="cls-2" d="M66.78,93.21c8.58,2.72,17.12,5.63,25.76,8.11a55.81,55.81,0,0,0,24.26,1.88,52.18,52.18,0,0,0,13-3.81c.69-.31.09-1.32-.6-1a51.22,51.22,0,0,1-23.43,4.2c-8.46-.48-16.5-3.46-24.5-6L67.09,92.08c-.72-.23-1,.91-.31,1.13Z"/><path class="cls-2" d="M79.1,129l44.81-7.44c3.62-.6,7.25-1.19,10.88-1.81a57.42,57.42,0,0,0,9.67-2.31c4.37-1.58,10.75-5.13,8.35-10.8-1.11-2.62-3.7-4.46-6.17-5.69a48.57,48.57,0,0,0-10.81-3.68c-.74-.17-1.05,1-.32,1.13a53.27,53.27,0,0,1,9.64,3.15,13.64,13.64,0,0,1,6.07,4.59c3.9,6.06-5.05,9.67-9.43,10.92-6.28,1.78-12.92,2.49-19.35,3.56L101.89,124l-23.1,3.84c-.74.12-.43,1.25.31,1.13Z"/><path class="cls-2" d="M68.66,142.22l16.64,1.36c5.48.45,11,1.14,16.48,1.27a23.12,23.12,0,0,0,13.11-3.62,59.78,59.78,0,0,0,10.76-9.2,119,119,0,0,0,11-13.09c.44-.61-.58-1.2-1-.59A116.44,116.44,0,0,1,126,130a68.28,68.28,0,0,1-10.58,9.52,22.41,22.41,0,0,1-13.2,4.2c-5.17-.05-10.38-.74-15.54-1.16l-18-1.48c-.76-.06-.75,1.11,0,1.18Z"/><path class="cls-2" d="M48.13,152.78a127.2,127.2,0,0,0,23.65,3,84.44,84.44,0,0,0,11.69-.23,13.48,13.48,0,0,0,8-3.65c2.57-2.41,4.53-5.45,7.46-7.47.62-.42,0-1.44-.59-1-4.93,3.39-7.49,9.7-13.86,10.8a61.14,61.14,0,0,1-11.4.42q-5.76-.12-11.49-.76a123.21,123.21,0,0,1-13.2-2.21c-.73-.16-1,1-.31,1.14Z"/><path class="cls-2" d="M1.18,103.71l5-39c.41-3.21.8-6.42,1.44-9.58a21.87,21.87,0,0,1,1.13-4.31c.69-1.62,2.1-2,3.75-1.9,5.64.45,10.5,4.34,15.32,6.92A44.17,44.17,0,0,0,46.31,61c.75,0,.75-1.14,0-1.18a43,43,0,0,1-18.42-5.23c-4.77-2.62-9.47-6.15-15-6.77-2.46-.28-4.47.56-5.35,3a46.89,46.89,0,0,0-1.93,9.55C4.64,67,3.84,73.76,3,80.49L0,103.71c-.1.75,1.08.74,1.17,0Z"/><path class="cls-2" d="M.78,104.33c13.42,11.49,23.93,25.8,36.16,38.46a141.36,141.36,0,0,0,10.93,10.26c.58.48,1.41-.35.83-.83-13.55-11.34-24.1-25.63-36.24-38.35A149.5,149.5,0,0,0,1.62,103.5c-.58-.49-1.41.34-.84.83Z"/><path class="cls-3" d="M151.29,106.53c5.61,3.35,9.76,8.45,14.32,13A55.35,55.35,0,0,0,181,130.41c11.34,5.5,23.88,8.36,34.54,15.29A37.37,37.37,0,0,1,229,160.32c.34.67,1.35.08,1-.6a36.72,36.72,0,0,0-11.07-13.09,71.09,71.09,0,0,0-15.63-8.5c-12.33-5.09-25.57-8.61-35.47-18.06-5.2-5-9.67-10.82-15.93-14.56a.59.59,0,0,0-.59,1Z"/><path class="cls-3" d="M191.65,79.79a154.69,154.69,0,0,1,22.5,27.92,155.88,155.88,0,0,1,8.61,15.62,121.7,121.7,0,0,1,6.89,17.06,19.1,19.1,0,0,1,1,6,15.48,15.48,0,0,1-1,4.89c-1.07,3.06-2.53,6-2.42,9.34,0,.75,1.2.76,1.18,0-.11-3.14,1.28-6,2.31-8.84a16.34,16.34,0,0,0,.81-8.86,54,54,0,0,0-3.1-9.49q-1.6-4.14-3.45-8.17A155.33,155.33,0,0,0,206.2,94.34,154,154,0,0,0,192.49,79c-.55-.54-1.38.3-.84.83Z"/><path class="cls-3" d="M123.84,75l2.74-11.31a6,6,0,0,1,.8-2.52,1.6,1.6,0,0,1,1.62-.23c1.27.3,2.46.85,3.79.59.74-.15.43-1.28-.31-1.14-1.38.27-2.72-.65-4.08-.73-1.68-.1-2.35,1.21-2.69,2.64-1,4.13-2,8.26-3,12.38-.18.74,1,1,1.13.32Z"/><path class="cls-3" d="M122.93,74.24v1.53a.59.59,0,1,0,1.18,0V74.24a.6.6,0,0,0-.59-.59.6.6,0,0,0-.59.59Z"/><path class="cls-3" d="M124.48,133.65l-.34,11.52c-.08,3-.54,6.31.75,9.08,1.15,2.45,3.6,3.61,6.16,4a71.41,71.41,0,0,0,9.81.39l5.51.1c1.41,0,2.83,0,3.9-1a8.73,8.73,0,0,0,1.78-3.43,26.88,26.88,0,0,0,1.14-5.1c.9-6.78-.24-13.67.83-20.43.63-4,2.59-7.39,3.6-11.23.79-3,.67-6.28-1.37-8.75-.48-.58-1.31.25-.83.83,2,2.38,1.69,5.67.82,8.44-.93,3-2.39,5.73-3.05,8.8-1.27,5.83-.65,11.83-.83,17.73a33,33,0,0,1-1.32,9c-.43,1.36-1,3.34-2.5,3.85a6.57,6.57,0,0,1-2.17.13l-2.75-.05c-3.24-.05-6.48-.06-9.72-.18-2.48-.09-5.39-.38-7.14-2.36-2.24-2.53-1.53-6.74-1.44-9.82l.34-11.52a.59.59,0,0,0-1.18,0Z"/><path class="cls-2" d="M130.27,95.53c-2.36,8.57-5.72,16.88-7.35,25.64a60.7,60.7,0,0,0-.86,13.26,42.92,42.92,0,0,0,2.57,14,38,38,0,0,0,15.07,17.8c7.41,4.8,16.05,7.17,24.78,8,9.58.88,19.28-.08,28.74-1.61A166.21,166.21,0,0,0,220,165.94,168.5,168.5,0,0,0,245.3,155a233.11,233.11,0,0,0,23.64-15c7.63-5.33,15.61-10.94,24.54-13.83,4.27-1.38,9-2.08,13.36-.65a12.71,12.71,0,0,1,7.69,7.1,8.5,8.5,0,0,1,.43,5l1.7-1.29c-4.16.35-8.32.74-12.49.9s-8.46.09-12.69.07a1.8,1.8,0,0,0-1.77,1.76c-.17,6.12-1,12.2-1.41,18.3-.08,1.18-.06,2.37-.22,3.53-.19,1.36-.36,3,1,3.82,1.19.7,3.21.43,4.58.49a8.33,8.33,0,0,0,1.5.06c1.62-.18,2.54-2.35.89-3.29a5.66,5.66,0,0,0-2.21-.34l-1.09-.07-.44,0c-.57,0,.48.15.6.21l-.42,3.22c-.5.16-.55.06.05.06h1.62l2.9,0,5.67,0,10.14-.08,19.55-.17,12.84-.11a1.79,1.79,0,0,0,1.77-1.76V138a1.79,1.79,0,0,0-1.76-1.77c-9.55.2-19.07.65-28.62,0-2.26-.17-2.25,3.36,0,3.53,9.55.68,19.07.23,28.62,0L343.51,138v24.67l1.76-1.77-41.73.36-6.25,0-3.35,0a8.24,8.24,0,0,0-2.38.08c-1.35.42-1.86,2.53-.42,3.23a6.17,6.17,0,0,0,2.23.35l1.08.07c.15,0,.29,0,.44,0,.47,0,.32.31-.62-.22l.9-3.29a6.62,6.62,0,0,1-1.18,0l-1.58-.08-1.1-.05-.63,0c.48.2.74.49.76.88a8.69,8.69,0,0,0,.15-1.37,16.76,16.76,0,0,0,.12-1.73c0-1.24.14-2.48.23-3.72.42-5.5,1.14-11,1.29-16.52l-1.76,1.76c4.23,0,8.46.1,12.69-.06s8.33-.56,12.49-.9a1.81,1.81,0,0,0,1.7-1.3c1.79-8-4.89-15.36-12.45-16.88-9.34-1.88-18.74,2.74-26.58,7.34-8.14,4.78-15.59,10.6-23.49,15.74a165.32,165.32,0,0,1-24.28,13.05,159.34,159.34,0,0,1-53.79,13.11c-16.81,1-36.07-2.4-46.38-17.18-5.26-7.55-6.17-16.65-5.77-25.63.38-8.76,3.64-17.26,6.26-25.55.63-2,1.24-4,1.8-6a1.77,1.77,0,0,0-3.41-.94Z"/><path class="cls-1" d="M207.3,180.26c3.95.8,7.47-1.52,10.57-3.68a109.27,109.27,0,0,0,10-7.87c.56-.5-.27-1.33-.84-.83a104,104,0,0,1-9.1,7.25c-2.93,2.07-6.46,4.76-10.28,4-.74-.15-1.05,1-.31,1.14Z"/><path class="cls-1" d="M258.88,154.52a72.43,72.43,0,0,0-3.24,6.91.58.58,0,0,0,.56.74q3.41,0,6.81.16c.75,0,.75-1.15,0-1.17q-3.4-.14-6.81-.16l.57.74a71.52,71.52,0,0,1,3.13-6.63c.36-.67-.66-1.26-1-.59Z"/><path class="cls-1" d="M256.57,161.22c4.84-2,8.12-6.12,11.42-10,3.44-4.09,7.62-8.52,13.28-8.93.76,0,.76-1.23,0-1.17-11.71.85-15.13,14.84-25,19-.69.28-.39,1.42.31,1.13Z"/><path class="cls-1" d="M113,151.79c-3.6-12-7.37-25-2.68-37.21a.6.6,0,0,0-.41-.73,7.64,7.64,0,0,0-7,2.27c-.43.46.16,1.33.72.92l3.07-2.25c.89-.66,1.88-1.7,3-.88s1.81,2.32,3.35,2.81c.73.22,1-.91.31-1.14-1.7-.53-2.25-2.78-4.07-3.16a3,3,0,0,0-2.44.83L103,116l.72.92a6.4,6.4,0,0,1,5.86-2l-.41-.72c-4.76,12.41-1,25.68,2.67,37.83a.59.59,0,0,0,1.14-.31Z"/><path class="cls-1" d="M144.61,94.08c1.81-.35,3.6-.74,5.39-1.15a1.66,1.66,0,0,0,1.05-.48.89.89,0,0,0-.21-1.19,4.78,4.78,0,0,0-2.18-1.11.59.59,0,0,0-.32,1.14,7.77,7.77,0,0,1,.8.31c.22.1.44.26.67.34s.08.09.07,0a.88.88,0,0,1-.1.3l-.33.91a.59.59,0,0,0,1.14.32c.25-.71.79-1.64.14-2.28a3,3,0,0,0-.9-.54c-.38-.18-.78-.34-1.17-.48l-.32,1.14a3.8,3.8,0,0,1,1,.34,4,4,0,0,1,.44.27l.17.12.08.07c.1.12.11.06,0-.16l.15-.26c-.06.07-.42.11-.54.14l-.71.16-1.53.34q-1.54.33-3.09.63a.59.59,0,0,0,.31,1.14Z"/></g></g></svg>