<svg xmlns="http://www.w3.org/2000/svg" viewBox="0 0 447.1 166.67"><defs><style>.cls-1{fill:#903;}.cls-2{fill:#f06;}.cls-3{fill:#06f;}</style></defs><title>Recurso 4</title><g id="Capa_2" data-name="Capa 2"><g id="Capa_2-2" data-name="Capa 2"><path class="cls-1" d="M301.23,125.12a94.73,94.73,0,0,1,16.33,26.56c.3.73,1.51.41,1.2-.33a96.35,96.35,0,0,0-16.65-27.12c-.53-.6-1.41.28-.88.89Z"/><path class="cls-2" d="M25.93,1.28,50.65,51.09c1.87,3.76,3.71,7.61,7.07,10.28.62.5,1.51-.38.88-.88-3-2.4-4.74-5.76-6.42-9.14q-3.06-6.14-6.1-12.28L33.88,14.5,27,.65c-.36-.72-1.44-.09-1.08.63Z"/><path class="cls-1" d="M117.76,81.71c1.73-2.34,4.68-6.47,8.12-5.59,1.8.46,2.86,2,3.62,3.6.89,1.87,1.63,3.83,2.43,5.74l2.49,5.93c.78,1.85,1.84,3.82,2,5.87.19,3-2.11,5-4.82,5.61-6.9,1.57-10.64-5.84-11.85-11.41-.81-3.76-1.07-7.64-2.27-11.31a20,20,0,0,0-4.35-7.47c-3.84-4.16-9.23-6.6-14.63-8C92.34,63.1,86.09,62.93,79.8,62.9c-7.23,0-14.63.05-21.64-2a38.55,38.55,0,0,1-9.71-4.64c-2.71-1.67-5.87-3.35-9.14-2.38S34,57.71,31.82,60q-3.9,4-8.16,7.54A113.06,113.06,0,0,1,5.17,80.12C3.54,81,1.9,81.85.23,82.66a.47.47,0,0,0-.1.74c12.21,12.07,24.37,24.19,36.63,36.2,5,4.87,10.19,9.7,16.35,13a31.8,31.8,0,0,0,9.43,3.44,32.72,32.72,0,0,0,10.59,0c7.48-1.06,15-3.84,22.66-2.72,6.74,1,13,6.24,19.94,3.3a13.49,13.49,0,0,0,6.36-5.67,12.22,12.22,0,0,0,1.47-4.17,5.82,5.82,0,0,0,0-2.56,6.09,6.09,0,0,0-2.4-2.77,27.84,27.84,0,0,0-4.79-2.63c-4.32-2-8.81-3.55-13.2-5.35-4-1.65-8.41-3.39-11.76-6.27a10,10,0,0,1-1.68-1.76c-.35-.49-1.17,0-.81.48,2.21,3,5.92,4.85,9.23,6.4,4.29,2,8.76,3.63,13.16,5.38,2,.79,4,1.61,5.87,2.55a18.57,18.57,0,0,1,4.19,2.57,3.38,3.38,0,0,1,1.33,3.31,11.87,11.87,0,0,1-4.4,7.85,11.32,11.32,0,0,1-9.05,2.47c-3.51-.57-6.67-2.32-10-3.34-7-2.1-14.18-.3-21.1,1.09A51.36,51.36,0,0,1,67,135.59a27.82,27.82,0,0,1-10-2.15c-6.43-2.64-11.88-7.23-16.88-12-5.76-5.43-11.31-11.1-16.94-16.67L5.22,87.1.8,82.74l-.09.74A114.77,114.77,0,0,0,20.42,71.31q4.45-3.42,8.56-7.26,2.14-2,4.19-4.13a32.28,32.28,0,0,1,4-3.85,6.93,6.93,0,0,1,5.13-1.43,13.75,13.75,0,0,1,5.14,2.14,44.7,44.7,0,0,0,9.74,4.84c7.08,2.21,14.64,2.18,22,2.22,6.68,0,13.33.16,19.82,2,5.74,1.6,11.48,4.47,15,9.45,4.36,6.17,3.37,14,6.13,20.75,1.18,2.88,3,5.66,5.88,7.12a8.7,8.7,0,0,0,7.3.18,6.24,6.24,0,0,0,4.06-5.54,14.12,14.12,0,0,0-1.58-5.58l-2.63-6.28c-.81-1.91-1.6-3.83-2.41-5.74a9.73,9.73,0,0,0-2.64-4c-2.59-2-5.58-.89-7.77,1.11a27,27,0,0,0-3.38,3.94c-.36.49.46,1,.82.47Z"/><path class="cls-1" d="M123.53,125.11a29.61,29.61,0,0,0,6.39-4.61,14.15,14.15,0,0,0,4-6.23c1.12-4.56-2.24-9.16-6-11.4a.47.47,0,0,0-.48.81c3.48,2.1,6.8,6.57,5.38,10.83-1.48,4.47-5.87,7.59-9.79,9.79-.53.29,0,1.11.48.81Z"/><path class="cls-1" d="M135.05,106.53A62.4,62.4,0,0,0,138.8,97q.76-2.51,1.3-5.06c.24-1.15.26-4.15,1.82-4.24,2.11-.13,2.16,2.55,1.87,4-.37,1.79-.92,3.55-1.38,5.31l-2.85,10.81.45-.35a20.15,20.15,0,0,1-4.7-.51,9.93,9.93,0,0,1-4.41-1.7l-.58.74a14.2,14.2,0,0,0,5.73,1.73,21,21,0,0,0,6.08.06l-.46-.13c1,1.07.07,2.78-1.15,3.17-1.62.51-3-.46-4.27-1.32-.72-.5-1.9-1-2.57-.16s-.44,2-.61,2.81c-.48,2.46-.51,5.72,1.06,7.85a3.41,3.41,0,0,0,5,.27c2.5-2.17,1.83-5.7,1.12-8.51a.47.47,0,0,0-.91.25c.49,1.94,1.08,4.17.21,6.1-.64,1.41-2.36,2.83-4,2-1.41-.75-1.72-3.06-1.82-4.46a12.4,12.4,0,0,1,.18-3c.13-.72.17-1.47.31-2.19.24-1.18,1.7.1,2.24.46a6.08,6.08,0,0,0,2.3,1,3.56,3.56,0,0,0,3.5-1.15,3,3,0,0,0,.5-3c-.2-.44-.44-.79-.93-.81s-1.23.14-1.83.16c-3,.06-6.66-.21-9.24-1.85-.45-.28-1,.39-.57.75a10.54,10.54,0,0,0,4.58,1.89,22.73,22.73,0,0,0,5.2.6.5.5,0,0,0,.46-.35l2.61-9.91q.64-2.43,1.28-4.86a8.38,8.38,0,0,0,.41-4.23c-.48-1.77-2.93-3.22-4.37-1.56-.81.94-.85,2.38-1.08,3.53-.31,1.6-.69,3.18-1.13,4.74a61.8,61.8,0,0,1-3.95,10.28c-.27.54.54,1,.81.47Z"/><path class="cls-2" d="M38.43,2.51a169.86,169.86,0,0,0,23,48.62q4.29,6.25,9.12,12.09c.39.47,1.06-.2.67-.67a168.55,168.55,0,0,1-27-46.06q-2.73-7-4.82-14.23a.47.47,0,0,0-.91.25Z"/><path class="cls-2" d="M48.52.73C56,18,63.43,35.45,73.44,51.47c2.8,4.49,5.8,8.86,9,13,.37.48,1.19,0,.82-.47-11.52-15-20-32-27.6-49.17C53.53,10,51.43,5.13,49.34.25c-.24-.56-1.06-.08-.82.48Z"/><path class="cls-2" d="M140.24,117.77c12.6,10.14,25.56,20.49,40.77,26.45A70,70,0,0,0,194.23,148c.6.11.85-.81.26-.91-16-2.86-30-11.71-42.68-21.38-3.68-2.8-7.3-5.7-10.9-8.6-.47-.38-1.15.29-.67.67Z"/><path class="cls-2" d="M128,123.42c14.09,10.77,28.52,21.72,45.23,28.11,2.3.88,4.64,1.67,7,2.35,1.24.35,2.49.67,3.75,1l1.89.41c.33.07,1.67.16,1.83.48-.27-.54-1.08-.06-.81.48.57,1.15,2.39-.37,1.11-1.32a7.47,7.47,0,0,0-2.83-.75c-1.26-.28-2.51-.59-3.76-.93a89.12,89.12,0,0,1-14-5.18A159.33,159.33,0,0,1,142,132.77c-4.61-3.3-9.11-6.73-13.61-10.17-.49-.37-1,.45-.48.82Z"/><path class="cls-2" d="M123,128.72a207.27,207.27,0,0,0,40,28.94q6.13,3.41,12.48,6.38c.55.25,1-.56.47-.82a206.48,206.48,0,0,1-41.67-26q-5.46-4.4-10.6-9.16c-.45-.41-1.12.26-.67.67Z"/><path class="cls-3" d="M152,116c2.38-1.42,4.32-4.06,4.09-6.95a5.65,5.65,0,0,0-5.06-5.26.48.48,0,0,0-.46.35,7.84,7.84,0,0,0-.28,3c.06.6,1,.62.95,0l-.13-1.79-.07-.9a3.08,3.08,0,0,1-.06-.9c.12-.42,1.24-.28,1.6-.29l1.7-.08c.6,0,.61-1,0-.94l-2.43.1c-.53,0-1.22-.07-1.6.37s-.18,1.32-.15,1.87l.19,2.56h.95a7.14,7.14,0,0,1,.24-2.72l-.45.34a4.72,4.72,0,0,1,4.13,4.69,6.94,6.94,0,0,1-3.64,5.76.48.48,0,0,0,.48.82Z"/><path class="cls-3" d="M115.72,102.61a10.8,10.8,0,0,0,8.49,13.18c.6.11.85-.8.25-.92a9.86,9.86,0,0,1-7.83-12c.13-.59-.78-.84-.91-.25Z"/><path class="cls-3" d="M118.71,115.58l2.54.54c.84.18,1.68.4,2.54.53a.79.79,0,0,0,.94-.44,2.88,2.88,0,0,0,.07-1.17V112.4a.48.48,0,0,0-1,0l0,2.26v.54a2,2,0,0,0,0,.54c0,.09-.07.13.08.05s0,0,0-.07a3.73,3.73,0,0,0-.58-.12l-4.39-.93c-.59-.13-.85.78-.25.91Z"/><path class="cls-1" d="M253.26,144.48c1.57-6.36,3-12.74,4.72-19.07a27.57,27.57,0,0,1,3.51-8.46c1.58-2.34,3.66-4.28,5.37-6.51,3.42-4.48,4.89-10,6.63-15.26.4-1.21.73-2.8,1.64-3.76,1.22-1.28,3.07-.29,3.76,1a7.81,7.81,0,0,1,.46,4.15c-.11,1.6-.27,3.19-.47,4.78A102.76,102.76,0,0,1,277,112c-.4,1.77-.85,3.54-1.35,5.29-.23.8-.47,1.61-.72,2.41-.12.4-.25.8-.38,1.2a5.18,5.18,0,0,1-.47,1.44h.79l.06,0c.33-.64-.63-1.2-1-.56a1.05,1.05,0,0,0,.12,1.31.56.56,0,0,0,.79,0,4.31,4.31,0,0,0,.63-1.53c.28-.87.55-1.73.81-2.61q.75-2.51,1.38-5.06,1.27-5.21,2-10.51.35-2.48.57-5a19.65,19.65,0,0,0,.12-4.66c-.31-2.15-2-4.52-4.49-4.06s-3.16,4-3.82,6a80,80,0,0,1-3.34,9.27,33.49,33.49,0,0,1-5.54,7.92,26.15,26.15,0,0,0-4.91,7.67,88.45,88.45,0,0,0-3.11,11.23l-3,12.3c-.17.7.91,1,1.08.3Z"/><path class="cls-1" d="M294.08,125.06c1.85,3.53,3.87,7.4,3.23,11.52s-4,5.82-6.76,8.32c-5.26,4.8-9.76,10.64-16.4,13.63-3.23,1.46-7.63,3.31-7.31,7.61.06.71,1.17.71,1.12,0-.34-4.52,5.32-5.79,8.4-7.45a37.88,37.88,0,0,0,8.25-6.4c2.64-2.55,5.13-5.26,7.92-7.65a28,28,0,0,0,4.13-3.7,9,9,0,0,0,1.77-4.41c.58-4.32-1.44-8.33-3.39-12-.33-.63-1.29-.07-1,.57Z"/><path class="cls-1" d="M322.15,85.12c2.23,2.46,5.42,4.82,8.93,3.75a5,5,0,0,0,3.21-2.66,5.61,5.61,0,0,0-.27-4.5c-.75-1.78-1.92-3.39-2.33-5.31-.15-.7-1.23-.4-1.08.3.41,1.87,1.5,3.47,2.28,5.19.71,1.55,1.07,3.43-.23,4.79A4.87,4.87,0,0,1,328,87.86a10.77,10.77,0,0,1-5.07-3.53c-.49-.53-1.27.26-.79.79Z"/><path class="cls-2" d="M258.37,118.23c2.76-13.8,8.6-27.18,18.18-37.63,5.15-5.62,11.2-10.32,17.16-15,6.2-4.92,12.42-9.82,18.86-14.41a188.48,188.48,0,0,1,38.77-21.36,217.55,217.55,0,0,1,41.31-12,261.6,261.6,0,0,1,43.44-4.35c1.8,0,3.61,0,5.42,0a.56.56,0,0,0,0-1.11l-3-.3c-.72-.07-.71,1,0,1.11l3,.3V12.29a269,269,0,0,0-43.81,3.49A223,223,0,0,0,355.35,27a187.54,187.54,0,0,0-39.18,20.27c-6.51,4.42-12.76,9.21-18.94,14.07s-12.42,9.56-18.06,15c-10.32,9.89-17.17,22.72-20.72,36.5q-.65,2.53-1.16,5.1c-.14.7.94,1,1.08.3Z"/><path class="cls-2" d="M288.46,115.39a69.09,69.09,0,0,1,8.64-11.09,113.41,113.41,0,0,1,10.74-10.4,129.48,129.48,0,0,1,13.56-9.41q7.71-4.9,15.72-9.33A298.35,298.35,0,0,1,405.45,47.8a294.4,294.4,0,0,1,41.12-7.74c.7-.08.71-1.2,0-1.12A298.86,298.86,0,0,0,340.32,72.15Q332,76.59,324,81.56c-5,3.09-10.06,6.22-14.72,9.79a98.83,98.83,0,0,0-12,11.19,72.83,72.83,0,0,0-9.71,12.29.56.56,0,0,0,1,.56Z"/><path class="cls-1" d="M276.29,120.49A44.61,44.61,0,0,0,295,110.68c2.24-2,6.84-6.17,9.4-2.29,2.14,3.24-.5,6.85-2.73,9.16a46.75,46.75,0,0,1-10.24,8,.56.56,0,0,0,.56,1,47.76,47.76,0,0,0,10.06-7.71c2.4-2.42,4.93-5.55,4.05-9.19-.81-3.32-4.05-4.6-7.06-3.23a19.75,19.75,0,0,0-4.69,3.44,42.05,42.05,0,0,1-5.11,3.9A44,44,0,0,1,276,119.42a.56.56,0,0,0,.3,1.07Z"/><path class="cls-1" d="M247,62.11c4-.19,7.37,2.46,11,3.81,4.26,1.57,8.52.47,12.65-1,8.77-3,17-7.37,25.37-11.32,1.82-.87,5.15-3.08,6.49-.46,1.08,2.11-.65,4.39-2,5.92a34.09,34.09,0,0,1-9,6.84c-3.3,1.87-6.74,3.52-10,5.53a46.91,46.91,0,0,0-9.28,7.89c-3.3,3.5-6.51,7.27-10.75,9.67-4,2.28-9,3.43-13.31,1.29-.64-.32-1.2.64-.56,1,8.1,4,16.49-1.82,22-7.49,3.25-3.36,6.27-7,10.1-9.76a99.39,99.39,0,0,1,10.72-6.23A41.87,41.87,0,0,0,300.3,61c2.21-2.21,5.55-6.49,2.41-9.38-1.46-1.35-3.39-.71-5,0-2.33,1.06-4.64,2.19-7,3.31-4.63,2.24-9.26,4.51-14,6.5-2.55,1.07-5.14,2.07-7.78,2.92-2.9.94-6,1.72-9.05,1C255.47,64.28,251.8,60.77,247,61c-.71,0-.71,1.15,0,1.12Z"/><path class="cls-1" d="M257.48,92.11a13.11,13.11,0,0,0,8.25,2c.71-.07.71-1.19,0-1.12A12.12,12.12,0,0,1,258,91.14c-.61-.39-1.17.58-.56,1Z"/><path class="cls-3" d="M328.89,19.72,298.84,35.35l.82.34a6,6,0,0,1,1.3-4.58l-.93-.54A11.14,11.14,0,0,1,298,35c-.25.32,0,.7.33.82l6.29,2.66c.67.27.95-.8.3-1.08l-6.29-2.65.33.82a11.86,11.86,0,0,0,2.2-4.68c.11-.5-.56-1-.93-.55a7.17,7.17,0,0,0-1.6,5.66c.05.38.54.48.82.34l30.06-15.64c.63-.33.07-1.29-.57-1Z"/><path class="cls-3" d="M307.11,147.1c4.68-6.35,10.72-11.48,16.8-16.45q10-8.2,20.29-16.13c.44-.34,0-.9-.39-1a33.62,33.62,0,0,0-14.23,1.33.56.56,0,0,0,.3,1.07l9.41-1.61,2.14-.36c.43-.08.86-.17,1.29-.22.63-.08.85.18,1.12.75a12.49,12.49,0,0,1,.57,2.12l.69,2.54a.56.56,0,0,0,1.07-.3l-.8-3a11.22,11.22,0,0,0-.71-2.42c-.7-1.28-2.14-.83-3.31-.63l-11.77,2,.3,1.07a32.69,32.69,0,0,1,13.93-1.28l-.4-1q-10.4,8.05-20.59,16.38c-6.06,4.95-12,10.1-16.68,16.43-.42.58.54,1.14,1,.56Z"/></g></g></svg>